<svg width="18" height="18" viewBox="0 0 18 18" fill="none" xmlns="http://www.w3.org/2000/svg">
<path d="M5.15473 9.54005L11.3164 15.7017C11.459 15.8443 11.6492 15.9229 11.852 15.9229C12.0549 15.9229 12.2451 15.8443 12.3877 15.7017L12.8414 15.248C13.1367 14.9524 13.1367 14.4719 12.8414 14.1768L7.66728 9.00265L12.8472 3.82276C12.9897 3.68014 13.0684 3.49001 13.0684 3.28727C13.0684 3.08431 12.9897 2.89418 12.8472 2.75144L12.3934 2.2979C12.2508 2.15527 12.0606 2.0767 11.8578 2.0767C11.6549 2.0767 11.4647 2.15527 11.3222 2.2979L5.15473 8.46513C5.01188 8.6082 4.93342 8.79923 4.93387 9.00231C4.93342 9.20617 5.01188 9.39709 5.15473 9.54005Z" fill="#A5A7A9"/>
</svg>
