<svg width="13" height="9" viewBox="0 0 13 9" fill="none" xmlns="http://www.w3.org/2000/svg">
<path d="M7.00726 8.11117L12.7923 2.32601C12.9262 2.1922 13 2.01359 13 1.82313C13 1.63268 12.9262 1.45406 12.7923 1.32026L12.3664 0.894224C12.0888 0.616998 11.6378 0.616998 11.3606 0.894224L6.5027 5.75217L1.63936 0.888833C1.50545 0.755029 1.32694 0.681152 1.13659 0.681152C0.946033 0.681152 0.767522 0.755029 0.633507 0.888833L0.207681 1.31487C0.0737714 1.44878 -4.1357e-08 1.62729 -4.9682e-08 1.81774C-5.8007e-08 2.0082 0.0737714 2.18681 0.207681 2.32062L5.99802 8.11117C6.13236 8.24529 6.31171 8.31896 6.50238 8.31854C6.69378 8.31896 6.87303 8.24529 7.00726 8.11117Z" fill="#A5A7A9"/>
</svg>
