<svg width="10" height="14" viewBox="0 0 10 14" fill="none" xmlns="http://www.w3.org/2000/svg">
<path d="M1.15375 7.5403L7.31547 13.7019C7.45798 13.8445 7.64822 13.9231 7.85107 13.9231C8.05392 13.9231 8.24416 13.8445 8.38668 13.7019L8.84044 13.2482C9.13571 12.9526 9.13571 12.4722 8.84044 12.177L3.6663 7.00289L8.84618 1.82301C8.9887 1.68038 9.06738 1.49025 9.06738 1.28751C9.06738 1.08455 8.9887 0.894423 8.84618 0.751684L8.39242 0.298142C8.24979 0.155517 8.05966 0.0769435 7.85681 0.0769435C7.65396 0.0769435 7.46372 0.155517 7.3212 0.298142L1.15375 6.46537C1.0109 6.60845 0.932441 6.79948 0.932891 7.00255C0.932441 7.20642 1.0109 7.39733 1.15375 7.5403Z" fill="#A5A7A9"/>
</svg>
