<svg width="10" height="14" viewBox="0 0 10 14" fill="none" xmlns="http://www.w3.org/2000/svg">
<path d="M8.84625 6.4597L2.68453 0.298103C2.54202 0.155477 2.35178 0.076904 2.14893 0.0769041C1.94608 0.0769041 1.75584 0.155478 1.61332 0.298103L1.15956 0.751758C0.864288 1.04737 0.864288 1.52781 1.15956 1.82297L6.3337 6.99711L1.15382 12.177C1.01131 12.3196 0.932619 12.5097 0.932619 12.7125C0.932619 12.9154 1.01131 13.1056 1.15382 13.2483L1.60759 13.7019C1.75021 13.8445 1.94034 13.9231 2.14319 13.9231C2.34604 13.9231 2.53628 13.8445 2.6788 13.7019L8.84625 7.53463C8.9891 7.39155 9.06756 7.20052 9.06711 6.99745C9.06756 6.79358 8.9891 6.60267 8.84625 6.4597Z" fill="#A5A7A9"/>
</svg>
