<svg width="30" height="27" viewBox="0 0 30 27" fill="none" xmlns="http://www.w3.org/2000/svg">
<path d="M15.8769 0.95H15.8769L3.40436 0.95L3.40434 0.95C1.85974 0.950656 0.60776 2.20264 0.607104 3.74723V3.74725L0.607104 23.2527C0.60776 24.7974 1.85974 26.0493 3.40434 26.05H15.8769C17.4215 26.0493 18.6735 24.7974 18.6741 23.2528V3.74725C18.6735 2.20264 17.4215 0.950656 15.8769 0.95ZM17.4752 23.2526C17.4727 24.1343 16.7584 24.8486 15.8767 24.8511H3.4045C2.52283 24.8486 1.8085 24.1343 1.80601 23.2526V3.74739C1.8085 2.86573 2.52283 2.1514 3.4045 2.1489H15.8767C16.7584 2.1514 17.4727 2.86573 17.4752 3.74739V23.2526Z" fill="#A5A7A9" stroke="#A5A7A9" stroke-width="0.1"/>
<path d="M11.0419 10.0159H11.0418L8.23957 10.0159L8.23943 10.0159C7.90887 10.0169 7.64106 10.2847 7.64012 10.6152V10.6154L7.64012 13.0879L7.64012 13.088C7.64106 13.4186 7.90887 13.6864 8.23943 13.6873H8.23957L11.0418 13.6873L11.0419 13.6873C11.3725 13.6864 11.6403 13.4186 11.6412 13.088V13.0879L11.6412 10.6154L11.6412 10.6152C11.6403 10.2847 11.3725 10.0169 11.0419 10.0159ZM10.4423 12.4884H8.83902V11.2148H10.4423V12.4884Z" fill="#A5A7A9" stroke="#A5A7A9" stroke-width="0.1"/>
<path d="M6.09691 10.0159H6.09676L3.29457 10.0159L3.29443 10.0159C2.96387 10.0169 2.69605 10.2847 2.69512 10.6152V10.6154L2.69512 13.0879L2.69512 13.088C2.69605 13.4186 2.96387 13.6864 3.29443 13.6873H3.29457L6.09676 13.6873L6.09691 13.6873C6.42747 13.6864 6.69528 13.4186 6.69622 13.088V13.0879L6.69622 10.6154L6.69622 10.6152C6.69528 10.2847 6.42747 10.0169 6.09691 10.0159ZM5.49731 12.4884H3.89402V11.2148H5.49731V12.4884Z" fill="#A5A7A9" stroke="#A5A7A9" stroke-width="0.1"/>
<path d="M15.987 10.0159H15.9868L13.1846 10.0159L13.1845 10.0159C12.8539 10.0169 12.5861 10.2847 12.5852 10.6152V10.6154L12.5852 13.0879L12.5852 13.088C12.5861 13.4186 12.8539 13.6864 13.1845 13.6873H13.1846L15.9868 13.6873L15.987 13.6873C16.3175 13.6864 16.5854 13.4186 16.5863 13.088V13.0879L16.5863 10.6154L16.5863 10.6152C16.5854 10.2847 16.3175 10.0169 15.987 10.0159ZM15.3874 12.4884H13.7841V11.2148H15.3874V12.4884Z" fill="#A5A7A9" stroke="#A5A7A9" stroke-width="0.1"/>
<path d="M11.0419 14.9611H11.0418L8.23957 14.9611L8.23943 14.9611C7.90887 14.962 7.64106 15.2299 7.64012 15.5604V15.5606L7.64012 18.0331L7.64012 18.0332C7.64106 18.3638 7.90887 18.6316 8.23943 18.6325H8.23957L11.0418 18.6325L11.0419 18.6325C11.3725 18.6316 11.6403 18.3638 11.6412 18.0332V18.0331L11.6412 15.5606L11.6412 15.5604C11.6403 15.2299 11.3725 14.962 11.0419 14.9611ZM10.4423 17.4336H8.83902V16.16H10.4423V17.4336Z" fill="#A5A7A9" stroke="#A5A7A9" stroke-width="0.1"/>
<path d="M6.09691 14.9611H6.09676L3.29457 14.9611L3.29443 14.9611C2.96387 14.962 2.69605 15.2299 2.69512 15.5604V15.5606L2.69512 18.0331L2.69512 18.0332C2.69605 18.3638 2.96387 18.6316 3.29443 18.6325H3.29457L6.09676 18.6325L6.09691 18.6325C6.42747 18.6316 6.69528 18.3638 6.69622 18.0332V18.0331L6.69622 15.5606L6.69622 15.5604C6.69528 15.2299 6.42747 14.962 6.09691 14.9611ZM5.49731 17.4336H3.89402V16.16H5.49731V17.4336Z" fill="#A5A7A9" stroke="#A5A7A9" stroke-width="0.1"/>
<path d="M15.987 14.9611H15.9868L13.1846 14.9611L13.1845 14.9611C12.8539 14.962 12.5861 15.2299 12.5852 15.5604V15.5606L12.5852 18.0331L12.5852 18.0332C12.5861 18.3638 12.8539 18.6316 13.1845 18.6325H13.1846L15.9868 18.6325L15.987 18.6325C16.3175 18.6316 16.5854 18.3638 16.5863 18.0332V18.0331L16.5863 15.5606L16.5863 15.5604C16.5854 15.2299 16.3175 14.962 15.987 14.9611ZM15.3874 17.4336H13.7841V16.16H15.3874V17.4336Z" fill="#A5A7A9" stroke="#A5A7A9" stroke-width="0.1"/>
<path d="M11.0419 19.9061H11.0418L8.23957 19.9061L8.23943 19.9061C7.90887 19.907 7.64106 20.1748 7.64012 20.5054V20.5055L7.64012 22.978L7.64012 22.9782C7.64106 23.3087 7.90887 23.5765 8.23943 23.5775H8.23957L11.0418 23.5775L11.0419 23.5775C11.3725 23.5765 11.6403 23.3087 11.6412 22.9782V22.978L11.6412 20.5055L11.6412 20.5054C11.6403 20.1748 11.3725 19.907 11.0419 19.9061ZM10.4423 22.3786H8.83902V21.105H10.4423V22.3786Z" fill="#A5A7A9" stroke="#A5A7A9" stroke-width="0.1"/>
<path d="M6.09691 19.9061H6.09676L3.29457 19.9061L3.29443 19.9061C2.96387 19.907 2.69605 20.1748 2.69512 20.5054V20.5055L2.69512 22.978L2.69512 22.9782C2.69605 23.3087 2.96387 23.5765 3.29443 23.5775H3.29457L6.09676 23.5775L6.09691 23.5775C6.42747 23.5765 6.69528 23.3087 6.69622 22.9782V22.978L6.69622 20.5055L6.69622 20.5054C6.69528 20.1748 6.42747 19.907 6.09691 19.9061ZM5.49731 22.3786H3.89402V21.105H5.49731V22.3786Z" fill="#A5A7A9" stroke="#A5A7A9" stroke-width="0.1"/>
<path d="M15.987 19.9061H15.9868L13.1846 19.9061L13.1845 19.9061C12.8539 19.907 12.5861 20.1748 12.5852 20.5054V20.5055L12.5852 22.978L12.5852 22.9782C12.5861 23.3087 12.8539 23.5765 13.1845 23.5775H13.1846L15.9868 23.5775L15.987 23.5775C16.3175 23.5765 16.5854 23.3087 16.5863 22.9782V22.978L16.5863 20.5055L16.5863 20.5054C16.5854 20.1748 16.3175 19.907 15.987 19.9061ZM15.3874 22.3786H13.7841V21.105H15.3874V22.3786Z" fill="#A5A7A9" stroke="#A5A7A9" stroke-width="0.1"/>
<path d="M15.987 3.42266H15.9869L3.29457 3.42266L3.29443 3.42266C2.96387 3.42359 2.69605 3.69141 2.69512 4.02197V4.02211L2.69512 8.14299L2.69512 8.14313C2.69605 8.47369 2.96387 8.7415 3.29443 8.74244H3.29457H15.9869L15.987 8.74244C16.3176 8.7415 16.5854 8.47369 16.5863 8.14313V8.14299V4.02211V4.02197C16.5854 3.69141 16.3176 3.42359 15.987 3.42266ZM15.3874 7.54354H3.89402V4.62156H15.3874V7.54354Z" fill="#A5A7A9" stroke="#A5A7A9" stroke-width="0.1"/>
<circle cx="21" cy="14" r="8" fill="#1F2227"/>
<circle cx="21" cy="14" r="8" stroke="#A5A7A9" stroke-width="2"/>
<path d="M24.9971 10.0065C24.792 9.80111 24.4591 9.80109 24.254 10.0064M24.9971 10.0065L24.891 10.1125L24.997 10.0064C24.997 10.0064 24.9971 10.0065 24.9971 10.0065ZM24.9971 10.0065C25.2023 10.2117 25.2023 10.5443 24.997 10.7494C24.997 10.7494 24.997 10.7494 24.997 10.7495L17.7511 17.9953L24.254 10.0064M24.254 10.0064C24.2539 10.0065 24.2539 10.0065 24.2539 10.0065M24.254 10.0064L24.2539 10.0065M24.2539 10.0065L17.008 17.2524L17.008 17.2524H17.008C16.8027 17.4576 16.8027 17.7902 17.0079 17.9954C17.1105 18.098 17.2453 18.1494 17.3795 18.1494C17.5137 18.1494 17.6485 18.0981 17.751 17.9954L24.2539 10.0065Z" fill="#A5A7A9" stroke="#A5A7A9" stroke-width="0.3"/>
<path d="M18.7835 9.85415C17.7173 9.85415 16.85 10.7215 16.85 11.7877C16.85 12.8539 17.7173 13.7211 18.7835 13.7211C19.8497 13.7211 20.7169 12.8538 20.7169 11.7876C20.7169 10.7214 19.8497 9.85415 18.7835 9.85415ZM18.7835 12.6702C18.297 12.6702 17.9009 12.2741 17.9009 11.7876C17.9009 11.3012 18.297 10.9051 18.7835 10.9051C19.27 10.9051 19.666 11.3012 19.666 11.7876C19.666 12.2741 19.27 12.6702 18.7835 12.6702Z" fill="#A5A7A9" stroke="#A5A7A9" stroke-width="0.3"/>
<path d="M23.2163 14.2813C22.1501 14.2813 21.2829 15.1485 21.2829 16.2147C21.2829 17.2809 22.1501 18.1482 23.2163 18.1482C24.2825 18.1482 25.1498 17.281 25.1498 16.2147C25.1498 15.1485 24.2825 14.2813 23.2163 14.2813ZM23.2163 17.0972C22.7298 17.0972 22.3338 16.7011 22.3338 16.2147C22.3338 15.7282 22.7299 15.3321 23.2163 15.3321C23.7028 15.3321 24.0989 15.7282 24.0989 16.2147C24.0989 16.7011 23.7028 17.0972 23.2163 17.0972Z" fill="#A5A7A9" stroke="#A5A7A9" stroke-width="0.3"/>
</svg>
