<svg width="25" height="25" viewBox="0 0 25 25" fill="none" xmlns="http://www.w3.org/2000/svg">
<path d="M22.3214 2.67857H19.6429V0.892874C19.6429 0.399745 19.2431 0 18.75 0C18.2569 0 17.8571 0.399745 17.8571 0.892874V2.67857H7.14284V0.892874C7.14284 0.399745 6.74309 0 6.25001 0C5.75694 0 5.35714 0.399745 5.35714 0.892874V2.67857H2.67857C1.19924 2.67857 0 3.8778 0 5.35714V22.3214C0 23.8008 1.19924 25 2.67857 25H22.3214C23.8008 25 25 23.8008 25 22.3214V5.35714C25 3.8778 23.8008 2.67857 22.3214 2.67857ZM23.2143 22.3214C23.2143 22.8146 22.8145 23.2143 22.3214 23.2143H2.67857C2.18544 23.2143 1.7857 22.8146 1.7857 22.3214V10.7143H23.2143V22.3214ZM23.2143 8.92858H1.7857V5.35714C1.7857 4.86401 2.18544 4.46427 2.67857 4.46427H5.35714V6.24996C5.35714 6.74309 5.75688 7.14284 6.25001 7.14284C6.74314 7.14284 7.14289 6.74309 7.14289 6.24996V4.46427H17.8572V6.24996C17.8572 6.74309 18.2569 7.14284 18.75 7.14284C19.2432 7.14284 19.6429 6.74309 19.6429 6.24996V4.46427H22.3215C22.8146 4.46427 23.2144 4.86401 23.2144 5.35714V8.92858H23.2143Z" fill="#A5A7A9"/>
<path d="M7.14341 12.5H5.35772C4.86459 12.5 4.46484 12.8997 4.46484 13.3929C4.46484 13.886 4.86459 14.2857 5.35772 14.2857H7.14341C7.63654 14.2857 8.03628 13.886 8.03628 13.3929C8.03628 12.8997 7.63654 12.5 7.14341 12.5Z" fill="#A5A7A9"/>
<path d="M13.3915 12.5H11.6058C11.1126 12.5 10.7129 12.8997 10.7129 13.3929C10.7129 13.886 11.1126 14.2857 11.6058 14.2857H13.3915C13.8846 14.2857 14.2843 13.886 14.2843 13.3929C14.2843 12.8997 13.8846 12.5 13.3915 12.5Z" fill="#A5A7A9"/>
<path d="M19.6434 12.5H17.8577C17.3646 12.5 16.9648 12.8997 16.9648 13.3929C16.9648 13.886 17.3646 14.2857 17.8577 14.2857H19.6434C20.1365 14.2857 20.5363 13.886 20.5363 13.3929C20.5362 12.8997 20.1365 12.5 19.6434 12.5Z" fill="#A5A7A9"/>
<path d="M7.14341 16.0718H5.35772C4.86459 16.0718 4.46484 16.4715 4.46484 16.9647C4.46484 17.4578 4.86459 17.8575 5.35772 17.8575H7.14341C7.63654 17.8575 8.03628 17.4578 8.03628 16.9647C8.03628 16.4715 7.63654 16.0718 7.14341 16.0718Z" fill="#A5A7A9"/>
<path d="M13.3915 16.0718H11.6058C11.1126 16.0718 10.7129 16.4715 10.7129 16.9647C10.7129 17.4578 11.1126 17.8575 11.6058 17.8575H13.3915C13.8846 17.8575 14.2843 17.4578 14.2843 16.9647C14.2843 16.4715 13.8846 16.0718 13.3915 16.0718Z" fill="#A5A7A9"/>
<path d="M19.6434 16.0718H17.8577C17.3646 16.0718 16.9648 16.4715 16.9648 16.9647C16.9648 17.4578 17.3646 17.8575 17.8577 17.8575H19.6434C20.1365 17.8575 20.5363 17.4578 20.5363 16.9647C20.5362 16.4715 20.1365 16.0718 19.6434 16.0718Z" fill="#A5A7A9"/>
<path d="M7.14341 19.6431H5.35772C4.86459 19.6431 4.46484 20.0428 4.46484 20.5359C4.46484 21.0291 4.86459 21.4288 5.35772 21.4288H7.14341C7.63654 21.4288 8.03628 21.029 8.03628 20.5359C8.03628 20.0428 7.63654 19.6431 7.14341 19.6431Z" fill="#A5A7A9"/>
<path d="M13.3915 19.6431H11.6058C11.1126 19.6431 10.7129 20.0428 10.7129 20.5359C10.7129 21.0291 11.1126 21.4288 11.6058 21.4288H13.3915C13.8846 21.4288 14.2843 21.0291 14.2843 20.5359C14.2843 20.0428 13.8846 19.6431 13.3915 19.6431Z" fill="#A5A7A9"/>
<path d="M19.6434 19.6431H17.8577C17.3646 19.6431 16.9648 20.0428 16.9648 20.5359C16.9648 21.0291 17.3646 21.4288 17.8577 21.4288H19.6434C20.1365 21.4288 20.5363 21.0291 20.5363 20.5359C20.5363 20.0428 20.1365 19.6431 19.6434 19.6431Z" fill="#A5A7A9"/>
</svg>
