<svg width="21" height="21" viewBox="0 0 21 21" fill="none" xmlns="http://www.w3.org/2000/svg">
<path d="M19.2201 2.19991C16.9185 -0.0520936 13.239 -0.0516037 10.938 2.20102L1.28727 11.8518C-0.457769 13.6379 -0.424419 16.5005 1.36176 18.2456C3.11856 19.9619 5.92428 19.9619 7.68107 18.2456L16.4199 9.50671C17.556 8.37064 17.556 6.52867 16.4199 5.3926C15.2839 4.25654 13.4419 4.25654 12.3058 5.3926L3.94691 13.7515C3.65535 14.0534 3.66372 14.5344 3.96561 14.826C4.2601 15.1104 4.72695 15.1104 5.02144 14.826L13.3803 6.46709C13.9346 5.93608 14.8144 5.95501 15.3454 6.5093C15.8603 7.04686 15.8603 7.89466 15.3454 8.43222L6.60659 17.171C5.42604 18.3348 3.52556 18.3212 2.3618 17.1406C1.2098 15.972 1.2098 14.0949 2.3618 12.9263L12.0125 3.27551C13.7315 1.55585 16.5191 1.55536 18.2388 3.27435C19.9584 4.99335 19.9589 7.78095 18.2399 9.50061L8.58917 19.1514C8.27041 19.4243 8.23328 19.9041 8.50626 20.2228C8.77925 20.5416 9.25896 20.5787 9.57772 20.3057C9.60746 20.2802 9.63516 20.2526 9.66063 20.2228L19.3114 10.5721C21.5981 8.23497 21.5572 4.4866 19.2201 2.19991Z" fill="#A5A7A9"/>
</svg>
