<svg width="32" height="21" viewBox="0 0 32 21" fill="none" xmlns="http://www.w3.org/2000/svg">
<rect x="2.06573" y="4.13147" width="10.3286" height="2.06571" rx="1.03286" fill="#A5A7A9"/>
<rect y="7.74646" width="10.3286" height="2.06571" rx="1.03286" fill="#A5A7A9"/>
<rect x="2.06573" y="11.3615" width="7.23" height="2.06571" rx="1.03286" fill="#A5A7A9"/>
<rect x="3.09857" width="18.5914" height="2.06571" rx="1.03286" fill="#A5A7A9"/>
<rect x="27.3458" y="10.0944" width="8.32268" height="2.14434" rx="1.07217" transform="rotate(-116.966 27.3458 10.0944)" fill="#A5A7A9"/>
<rect x="29.761" y="12.6008" width="6.17839" height="2.14434" rx="1.07217" transform="rotate(-128.694 29.761 12.6008)" fill="#A5A7A9"/>
<rect x="19.6243" y="8.26282" width="9.29572" height="2.06571" rx="1.03286" fill="#A5A7A9"/>
<rect x="21.69" width="10.3286" height="2.06571" rx="1.03286" transform="rotate(90 21.69 0)" fill="#A5A7A9"/>
<rect x="25.8214" y="4.13147" width="5.16429" height="2.06571" rx="1.03286" transform="rotate(-180 25.8214 4.13147)" fill="#A5A7A9"/>
<rect x="30.9857" y="18.5914" width="5.16429" height="2.06571" rx="1.03286" transform="rotate(-180 30.9857 18.5914)" fill="#A5A7A9"/>
<rect x="28.92" y="18.5914" width="8.26286" height="2.06571" rx="1.03286" transform="rotate(-90 28.92 18.5914)" fill="#A5A7A9"/>
<rect x="12.3943" y="16.5258" width="9.64955" height="2.14434" rx="1.07217" fill="#A5A7A9"/>
<rect x="4.13141" y="16.5258" width="5.16429" height="2.06571" rx="1.03286" fill="#A5A7A9"/>
<circle cx="10.6824" cy="17.4406" r="2.21652" stroke="#A5A7A9" stroke-width="2"/>
<circle cx="23.8737" cy="17.4406" r="2.21652" stroke="#A5A7A9" stroke-width="2"/>
</svg>
