<svg width="34" height="42" viewBox="0 0 34 42" fill="none" xmlns="http://www.w3.org/2000/svg">
<path d="M33.0322 9.65851C33.0218 9.64896 33.0123 9.64072 33.0049 9.63445C33.0035 9.63188 33.0014 9.62775 32.9981 9.62131L32.9967 9.61839C32.9855 9.59594 32.9635 9.55181 32.9214 9.50808L25.3443 1.00587L25.3445 1.00565L25.3364 0.997516C25.2998 0.960924 25.2518 0.929009 25.2233 0.910127L25.2178 0.90642C25.2005 0.894926 25.1875 0.886214 25.1763 0.87803C25.1709 0.874137 25.1669 0.871047 25.164 0.868636C25.1612 0.866377 25.1601 0.865275 25.1601 0.865276L25.1015 0.806725H25.073C25.0688 0.803781 25.0643 0.800859 25.0596 0.798041C25.0423 0.78768 25.0222 0.778419 24.9991 0.771954C24.9963 0.771179 24.9936 0.770456 24.9908 0.769784C24.8846 0.721031 24.735 0.674512 24.578 0.674512H5.98002C3.13716 0.674512 0.8 3.01168 0.8 5.85453V36.3957C0.8 39.2386 3.13716 41.5757 5.98002 41.5757H28.0155C30.8584 41.5757 33.1955 39.2386 33.1955 36.3957V10.1735C33.1955 10.1616 33.1962 10.1493 33.1972 10.1306C33.1975 10.1251 33.1978 10.1191 33.1981 10.1123C33.1995 10.0859 33.2009 10.0516 33.1993 10.0149C33.196 9.94049 33.1799 9.84358 33.1159 9.75115L32.9515 9.86499L33.1159 9.75115C33.0886 9.71179 33.0527 9.67729 33.0322 9.65851ZM25.6153 9.18021V4.39777L29.8621 9.18021H25.6153ZM31.1208 36.3517C31.1208 38.0957 29.7526 39.501 28.0155 39.501H5.98002C4.24123 39.501 2.8747 38.0939 2.8747 36.3957V5.81046C2.8747 4.07167 4.28183 2.70514 5.98002 2.70514H23.5406V10.1735C23.5406 10.7177 23.9759 11.2108 24.578 11.2108H31.1208V36.3517Z" fill="#A5A7A9" stroke="#A5A7A9" stroke-width="0.4"/>
<path d="M6.94958 11.2111H14.3094C14.8537 11.2111 15.3468 10.7758 15.3468 10.1738C15.3468 9.57854 14.9047 9.13643 14.3094 9.13643H6.94958C6.40533 9.13643 5.91223 9.57174 5.91223 10.1738C5.91223 10.7758 6.40533 11.2111 6.94958 11.2111Z" fill="#A5A7A9" stroke="#A5A7A9" stroke-width="0.4"/>
<path d="M14.3094 19.8H6.94953C6.40528 19.8 5.91218 20.2353 5.91218 20.8373C5.91218 21.3816 6.3475 21.8747 6.94953 21.8747H14.3094C14.8536 21.8747 15.3467 21.4394 15.3467 20.8373C15.3467 20.2862 14.8606 19.8 14.3094 19.8Z" fill="#A5A7A9" stroke="#A5A7A9" stroke-width="0.4"/>
<path d="M19.3008 35.1C18.4874 35.1 17.8574 34.8767 17.4108 34.43C16.9708 33.9767 16.7508 33.2667 16.7508 32.3C16.7508 31.6333 16.8641 31.09 17.0908 30.67C17.3174 30.25 17.6308 29.94 18.0308 29.74C18.4374 29.54 18.9041 29.44 19.4308 29.44C19.8041 29.44 20.1274 29.4767 20.4008 29.55C20.6808 29.6233 20.9241 29.71 21.1308 29.81L20.6908 30.96C20.4574 30.8667 20.2374 30.79 20.0308 30.73C19.8308 30.67 19.6308 30.64 19.4308 30.64C18.6574 30.64 18.2708 31.19 18.2708 32.29C18.2708 32.8367 18.3708 33.24 18.5708 33.5C18.7774 33.76 19.0641 33.89 19.4308 33.89C19.7441 33.89 20.0208 33.85 20.2608 33.77C20.5008 33.6833 20.7341 33.5667 20.9608 33.42V34.69C20.7341 34.8367 20.4941 34.94 20.2408 35C19.9941 35.0667 19.6808 35.1 19.3008 35.1ZM23.5275 29.54V31.54C23.5275 32.0133 23.7475 32.25 24.1875 32.25C24.4742 32.25 24.7408 32.22 24.9875 32.16C25.2342 32.0933 25.4808 32.0067 25.7275 31.9V29.54H27.2175V35H25.7275V32.83C25.4942 32.9567 25.2275 33.0733 24.9275 33.18C24.6275 33.28 24.2875 33.33 23.9075 33.33C23.3408 33.33 22.8875 33.1833 22.5475 32.89C22.2075 32.5967 22.0375 32.1567 22.0375 31.57V29.54H23.5275Z" fill="#A5A7A9"/>
<path d="M5.91223 15.7265C5.91223 16.2708 6.34755 16.7639 6.94958 16.7639H26.6052C27.1495 16.7639 27.6426 16.3285 27.6426 15.7265C27.6426 15.1823 27.2073 14.6892 26.6052 14.6892H6.94958C6.40533 14.6892 5.91223 15.1245 5.91223 15.7265Z" fill="#A5A7A9" stroke="#A5A7A9" stroke-width="0.4"/>
</svg>
