<svg width="34" height="42" viewBox="0 0 34 42" fill="none" xmlns="http://www.w3.org/2000/svg">
<path d="M33.0322 9.65851C33.0218 9.64896 33.0123 9.64072 33.0049 9.63445C33.0035 9.63188 33.0014 9.62775 32.9981 9.62131L32.9967 9.61839C32.9855 9.59594 32.9635 9.55181 32.9214 9.50808L25.3443 1.00587L25.3445 1.00565L25.3364 0.997516C25.2998 0.960924 25.2518 0.929009 25.2233 0.910127L25.2178 0.90642C25.2005 0.894926 25.1875 0.886214 25.1763 0.87803C25.1709 0.874137 25.1669 0.871047 25.164 0.868636C25.1612 0.866377 25.1601 0.865275 25.1601 0.865276L25.1015 0.806725H25.073C25.0688 0.803781 25.0643 0.800859 25.0596 0.798041C25.0423 0.78768 25.0222 0.778419 24.9991 0.771954C24.9963 0.771179 24.9936 0.770456 24.9908 0.769784C24.8846 0.721031 24.735 0.674512 24.578 0.674512H5.98002C3.13716 0.674512 0.8 3.01168 0.8 5.85453V36.3957C0.8 39.2386 3.13716 41.5757 5.98002 41.5757H28.0155C30.8584 41.5757 33.1955 39.2386 33.1955 36.3957V10.1735C33.1955 10.1616 33.1962 10.1493 33.1972 10.1306C33.1975 10.1251 33.1978 10.1191 33.1981 10.1123C33.1995 10.0859 33.2009 10.0516 33.1993 10.0149C33.196 9.94049 33.1799 9.84358 33.1159 9.75115L32.9515 9.86499L33.1159 9.75115C33.0886 9.71179 33.0527 9.67729 33.0322 9.65851ZM25.6153 9.18021V4.39777L29.8621 9.18021H25.6153ZM31.1208 36.3517C31.1208 38.0957 29.7526 39.501 28.0155 39.501H5.98002C4.24123 39.501 2.8747 38.0939 2.8747 36.3957V5.81046C2.8747 4.07167 4.28183 2.70514 5.98002 2.70514H23.5406V10.1735C23.5406 10.7177 23.9759 11.2108 24.578 11.2108H31.1208V36.3517Z" fill="#A5A7A9" stroke="#A5A7A9" stroke-width="0.4"/>
<path d="M6.94956 11.2111H14.3094C14.8537 11.2111 15.3468 10.7758 15.3468 10.1738C15.3468 9.57854 14.9047 9.13643 14.3094 9.13643H6.94956C6.40531 9.13643 5.91221 9.57174 5.91221 10.1738C5.91221 10.7758 6.40531 11.2111 6.94956 11.2111Z" fill="#A5A7A9" stroke="#A5A7A9" stroke-width="0.4"/>
<path d="M14.3094 19.8H6.94953C6.40528 19.8 5.91218 20.2353 5.91218 20.8373C5.91218 21.3816 6.3475 21.8747 6.94953 21.8747H14.3094C14.8536 21.8747 15.3467 21.4394 15.3467 20.8373C15.3467 20.2862 14.8606 19.8 14.3094 19.8Z" fill="#A5A7A9" stroke="#A5A7A9" stroke-width="0.4"/>
<path d="M17.7188 35.1C16.9054 35.1 16.2754 34.8767 15.8288 34.43C15.3888 33.9767 15.1688 33.2667 15.1688 32.3C15.1688 31.6333 15.2821 31.09 15.5088 30.67C15.7354 30.25 16.0488 29.94 16.4488 29.74C16.8554 29.54 17.3221 29.44 17.8488 29.44C18.2221 29.44 18.5454 29.4767 18.8188 29.55C19.0988 29.6233 19.3421 29.71 19.5488 29.81L19.1088 30.96C18.8754 30.8667 18.6554 30.79 18.4488 30.73C18.2488 30.67 18.0488 30.64 17.8488 30.64C17.0754 30.64 16.6888 31.19 16.6888 32.29C16.6888 32.8367 16.7888 33.24 16.9888 33.5C17.1954 33.76 17.4821 33.89 17.8488 33.89C18.1621 33.89 18.4388 33.85 18.6788 33.77C18.9188 33.6833 19.1521 33.5667 19.3788 33.42V34.69C19.1521 34.8367 18.9121 34.94 18.6588 35C18.4121 35.0667 18.0988 35.1 17.7188 35.1ZM24.6255 27.4V29.51C25.5721 29.59 26.2955 29.88 26.7955 30.38C27.2955 30.8733 27.5455 31.5033 27.5455 32.27C27.5455 33.0367 27.3021 33.67 26.8155 34.17C26.3288 34.67 25.5988 34.96 24.6255 35.04V37.4H23.2455V35.04C22.3055 34.9533 21.5788 34.66 21.0655 34.16C20.5588 33.66 20.3055 33.03 20.3055 32.27C20.3055 31.49 20.5421 30.8533 21.0155 30.36C21.4955 29.86 22.2388 29.5767 23.2455 29.51V27.4H24.6255ZM23.2455 30.63C22.8121 30.69 22.4688 30.87 22.2155 31.17C21.9621 31.47 21.8355 31.8367 21.8355 32.27C21.8355 32.7167 21.9588 33.09 22.2055 33.39C22.4521 33.6833 22.7988 33.8567 23.2455 33.91V30.63ZM24.6255 30.65V33.91C25.0721 33.8567 25.4155 33.6833 25.6555 33.39C25.8955 33.09 26.0155 32.7167 26.0155 32.27C26.0155 31.8367 25.8921 31.4733 25.6455 31.18C25.3988 30.88 25.0588 30.7033 24.6255 30.65Z" fill="#A5A7A9"/>
<path d="M5.91221 15.7265C5.91221 16.2708 6.34753 16.7639 6.94956 16.7639H26.6052C27.1495 16.7639 27.6426 16.3285 27.6426 15.7265C27.6426 15.1823 27.2073 14.6892 26.6052 14.6892H6.94956C6.40531 14.6892 5.91221 15.1245 5.91221 15.7265Z" fill="#A5A7A9" stroke="#A5A7A9" stroke-width="0.4"/>
</svg>
