<svg width="34" height="42" viewBox="0 0 34 42" fill="none" xmlns="http://www.w3.org/2000/svg">
<path d="M33.0322 9.65851C33.0218 9.64896 33.0123 9.64072 33.0049 9.63445C33.0035 9.63188 33.0014 9.62775 32.9981 9.62131L32.9967 9.61839C32.9855 9.59594 32.9635 9.55181 32.9214 9.50808L25.3443 1.00587L25.3445 1.00565L25.3364 0.997516C25.2998 0.960924 25.2518 0.929009 25.2233 0.910127L25.2178 0.90642C25.2005 0.894926 25.1875 0.886214 25.1763 0.87803C25.1709 0.874137 25.1669 0.871047 25.164 0.868636C25.1612 0.866377 25.1601 0.865275 25.1601 0.865276L25.1015 0.806725H25.073C25.0688 0.803781 25.0643 0.800859 25.0596 0.798041C25.0423 0.78768 25.0222 0.778419 24.9991 0.771954C24.9963 0.771179 24.9936 0.770456 24.9908 0.769784C24.8846 0.721031 24.735 0.674512 24.578 0.674512H5.98002C3.13716 0.674512 0.8 3.01168 0.8 5.85453V36.3957C0.8 39.2386 3.13716 41.5757 5.98002 41.5757H28.0155C30.8584 41.5757 33.1955 39.2386 33.1955 36.3957V10.1735C33.1955 10.1616 33.1962 10.1493 33.1972 10.1306C33.1975 10.1251 33.1978 10.1191 33.1981 10.1123C33.1995 10.0859 33.2009 10.0516 33.1993 10.0149C33.196 9.94049 33.1799 9.84358 33.1159 9.75115L32.9515 9.86499L33.1159 9.75115C33.0886 9.71179 33.0527 9.67729 33.0322 9.65851ZM25.6153 9.18021V4.39777L29.8621 9.18021H25.6153ZM31.1208 36.3517C31.1208 38.0957 29.7526 39.501 28.0155 39.501H5.98002C4.24123 39.501 2.8747 38.0939 2.8747 36.3957V5.81046C2.8747 4.07167 4.28183 2.70514 5.98002 2.70514H23.5406V10.1735C23.5406 10.7177 23.9759 11.2108 24.578 11.2108H31.1208V36.3517Z" fill="#A5A7A9" stroke="#A5A7A9" stroke-width="0.4"/>
<path d="M6.94956 11.2111H14.3094C14.8537 11.2111 15.3468 10.7758 15.3468 10.1738C15.3468 9.57854 14.9047 9.13643 14.3094 9.13643H6.94956C6.40531 9.13643 5.91221 9.57174 5.91221 10.1738C5.91221 10.7758 6.40531 11.2111 6.94956 11.2111Z" fill="#A5A7A9" stroke="#A5A7A9" stroke-width="0.4"/>
<path d="M14.3094 19.8H6.94953C6.40528 19.8 5.91218 20.2353 5.91218 20.8373C5.91218 21.3816 6.3475 21.8747 6.94953 21.8747H14.3094C14.8536 21.8747 15.3467 21.4394 15.3467 20.8373C15.3467 20.2862 14.8606 19.8 14.3094 19.8Z" fill="#A5A7A9" stroke="#A5A7A9" stroke-width="0.4"/>
<path d="M9.14258 29.54H10.7726L11.8026 32.61C11.8559 32.7567 11.8959 32.91 11.9226 33.07C11.9492 33.2233 11.9692 33.3867 11.9826 33.56H12.0126C12.0326 33.3867 12.0592 33.2233 12.0926 33.07C12.1326 32.91 12.1759 32.7567 12.2226 32.61L13.2326 29.54H14.8326L12.5226 35.7C12.3159 36.2667 12.0126 36.69 11.6126 36.97C11.2192 37.2567 10.7626 37.4 10.2426 37.4C10.0759 37.4 9.92924 37.39 9.80258 37.37C9.68258 37.3567 9.57591 37.34 9.48258 37.32V36.14C9.55591 36.1533 9.64258 36.1667 9.74258 36.18C9.84924 36.1933 9.95924 36.2 10.0726 36.2C10.3859 36.2 10.6326 36.1033 10.8126 35.91C10.9992 35.7233 11.1359 35.4967 11.2226 35.23L11.3126 34.96L9.14258 29.54ZM20.5759 29.54V35H19.0859V30.66H17.1059V35H15.6159V29.54H20.5759ZM27.0494 29.54V33.91H27.8494V36.96H26.5094V35H22.8394V36.96H21.4994V33.91H21.9594C22.1994 33.5433 22.4027 33.1267 22.5694 32.66C22.736 32.1867 22.8694 31.6833 22.9694 31.15C23.0694 30.6167 23.1427 30.08 23.1894 29.54H27.0494ZM25.5594 30.66H24.4394C24.3594 31.2667 24.2494 31.8433 24.1094 32.39C23.9694 32.93 23.7727 33.4367 23.5194 33.91H25.5594V30.66Z" fill="#A5A7A9"/>
<path d="M5.91221 15.7265C5.91221 16.2708 6.34753 16.7639 6.94956 16.7639H26.6052C27.1495 16.7639 27.6426 16.3285 27.6426 15.7265C27.6426 15.1823 27.2073 14.6892 26.6052 14.6892H6.94956C6.40531 14.6892 5.91221 15.1245 5.91221 15.7265Z" fill="#A5A7A9" stroke="#A5A7A9" stroke-width="0.4"/>
</svg>
