<svg width="34" height="42" viewBox="0 0 34 42" fill="none" xmlns="http://www.w3.org/2000/svg">
<path d="M33.0322 9.784C33.0218 9.77445 33.0123 9.76621 33.0049 9.75994C33.0035 9.75737 33.0014 9.75323 32.9981 9.7468L32.9967 9.74387C32.9855 9.72143 32.9635 9.67729 32.9214 9.63357L25.3443 1.13136L25.3445 1.13114L25.3364 1.123C25.2998 1.08641 25.2518 1.0545 25.2233 1.03562L25.2178 1.03191C25.2005 1.02041 25.1875 1.0117 25.1763 1.00352C25.1709 0.999625 25.1669 0.996535 25.164 0.994124C25.1612 0.991865 25.1601 0.990763 25.1601 0.990765L25.1015 0.932213H25.073C25.0688 0.92927 25.0643 0.926347 25.0596 0.923529C25.0423 0.913168 25.0222 0.903907 24.9991 0.897443C24.9963 0.896668 24.9936 0.895945 24.9908 0.895272C24.8846 0.846519 24.735 0.8 24.578 0.8H5.98002C3.13716 0.8 0.8 3.13716 0.8 5.98002V36.5212C0.8 39.3641 3.13716 41.7012 5.98002 41.7012H28.0155C30.8584 41.7012 33.1955 39.3641 33.1955 36.5212V10.299C33.1955 10.2871 33.1962 10.2748 33.1972 10.2561C33.1975 10.2506 33.1978 10.2446 33.1981 10.2378C33.1995 10.2114 33.2009 10.1771 33.1993 10.1404C33.196 10.066 33.1799 9.96907 33.1159 9.87664L32.9515 9.99048L33.1159 9.87664C33.0886 9.83727 33.0527 9.80278 33.0322 9.784ZM25.6153 9.3057V4.52326L29.8621 9.3057H25.6153ZM31.1208 36.4771C31.1208 38.2211 29.7526 39.6265 28.0155 39.6265H5.98002C4.24123 39.6265 2.8747 38.2194 2.8747 36.5212V5.93595C2.8747 4.19716 4.28183 2.83063 5.98002 2.83063H23.5406V10.299C23.5406 10.8432 23.9759 11.3363 24.578 11.3363H31.1208V36.4771Z" fill="#A5A7A9" stroke="#A5A7A9" stroke-width="0.4"/>
<path d="M6.94868 11.3366H14.3085C14.8528 11.3366 15.3459 10.9013 15.3459 10.2993C15.3459 9.70402 14.9038 9.26191 14.3085 9.26191H6.94868C6.40443 9.26191 5.91133 9.69723 5.91133 10.2993C5.91133 10.9013 6.40443 11.3366 6.94868 11.3366Z" fill="#A5A7A9" stroke="#A5A7A9" stroke-width="0.4"/>
<path d="M14.3085 19.9255H6.94868C6.40443 19.9255 5.91133 20.3608 5.91133 20.9628C5.91133 21.5071 6.34665 22.0002 6.94868 22.0002H14.3085C14.8528 22.0002 15.3459 21.5649 15.3459 20.9628C15.3459 20.4117 14.8597 19.9255 14.3085 19.9255Z" fill="#A5A7A9" stroke="#A5A7A9" stroke-width="0.4"/>
<path d="M15.5342 28.7241V31.3267H18.2148V31.9272H15.5342V35.1255H14.9043V28.1235H18.8447V28.7241H15.5342ZM19.7969 28.9243V28.1235H20.4951V28.9243H19.7969ZM19.8457 35.1255V30.1255H20.4463V35.1255H19.8457ZM22.0527 35.1255V28.1235H22.6533V35.1255H22.0527ZM27.3994 33.7534C27.3994 33.9552 27.3604 34.1457 27.2822 34.3247C27.2074 34.5037 27.1032 34.66 26.9697 34.7935C26.8363 34.9269 26.68 35.0327 26.501 35.1108C26.3219 35.1857 26.1315 35.2231 25.9297 35.2231H25.5293C25.3275 35.2231 25.137 35.1857 24.958 35.1108C24.779 35.0327 24.6227 34.9269 24.4893 34.7935C24.3558 34.66 24.25 34.5037 24.1719 34.3247C24.097 34.1457 24.0596 33.9552 24.0596 33.7534V31.4976C24.0596 31.2957 24.097 31.1053 24.1719 30.9263C24.25 30.7472 24.3558 30.591 24.4893 30.4575C24.6227 30.3241 24.779 30.2199 24.958 30.145C25.137 30.0669 25.3275 30.0278 25.5293 30.0278H25.9297C26.1315 30.0278 26.3219 30.0669 26.501 30.145C26.68 30.2199 26.8363 30.3241 26.9697 30.4575C27.1032 30.591 27.2074 30.7472 27.2822 30.9263C27.3604 31.1053 27.3994 31.2957 27.3994 31.4976V32.6743H24.6602V33.7876C24.6602 33.908 24.6829 34.022 24.7285 34.1294C24.7741 34.2336 24.8359 34.3247 24.9141 34.4028C24.9922 34.481 25.0833 34.5428 25.1875 34.5884C25.2949 34.634 25.4089 34.6567 25.5293 34.6567H25.9297C26.0501 34.6567 26.1624 34.634 26.2666 34.5884C26.374 34.5428 26.4668 34.481 26.5449 34.4028C26.623 34.3247 26.6849 34.2336 26.7305 34.1294C26.776 34.022 26.7988 33.908 26.7988 33.7876V33.4556L27.3994 33.5532V33.7534ZM26.7988 31.4634C26.7988 31.3429 26.776 31.2306 26.7305 31.1265C26.6849 31.019 26.623 30.9263 26.5449 30.8481C26.4668 30.77 26.374 30.7082 26.2666 30.6626C26.1624 30.617 26.0501 30.5942 25.9297 30.5942H25.5293C25.4089 30.5942 25.2949 30.617 25.1875 30.6626C25.0833 30.7082 24.9922 30.77 24.9141 30.8481C24.8359 30.9263 24.7741 31.019 24.7285 31.1265C24.6829 31.2306 24.6602 31.3429 24.6602 31.4634V32.2056H26.7988V31.4634Z" fill="#A5A7A9"/>
<path d="M5.91133 15.852C5.91133 16.3962 6.34665 16.8893 6.94868 16.8893H26.6043C27.1486 16.8893 27.6417 16.454 27.6417 15.852C27.6417 15.3077 27.2064 14.8146 26.6043 14.8146H6.94868C6.40443 14.8146 5.91133 15.25 5.91133 15.852Z" fill="#A5A7A9" stroke="#A5A7A9" stroke-width="0.4"/>
</svg>
