<svg width="34" height="42" viewBox="0 0 34 42" fill="none" xmlns="http://www.w3.org/2000/svg">
<path d="M33.0322 9.65851C33.0218 9.64896 33.0123 9.64072 33.0049 9.63445C33.0035 9.63188 33.0014 9.62775 32.9981 9.62131L32.9967 9.61839C32.9855 9.59594 32.9635 9.55181 32.9214 9.50808L25.3443 1.00587L25.3445 1.00565L25.3364 0.997516C25.2998 0.960924 25.2518 0.929009 25.2233 0.910127L25.2178 0.90642C25.2005 0.894926 25.1875 0.886214 25.1763 0.87803C25.1709 0.874137 25.1669 0.871047 25.164 0.868636C25.1612 0.866377 25.1601 0.865275 25.1601 0.865276L25.1015 0.806725H25.073C25.0688 0.803781 25.0643 0.800859 25.0596 0.798041C25.0423 0.78768 25.0222 0.778419 24.9991 0.771954C24.9963 0.771179 24.9936 0.770456 24.9908 0.769784C24.8846 0.721031 24.735 0.674512 24.578 0.674512H5.98002C3.13716 0.674512 0.8 3.01168 0.8 5.85453V36.3957C0.8 39.2386 3.13716 41.5757 5.98002 41.5757H28.0155C30.8584 41.5757 33.1955 39.2386 33.1955 36.3957V10.1735C33.1955 10.1616 33.1962 10.1493 33.1972 10.1306C33.1975 10.1251 33.1978 10.1191 33.1981 10.1123C33.1995 10.0859 33.2009 10.0516 33.1993 10.0149C33.196 9.94049 33.1799 9.84358 33.1159 9.75115L32.9515 9.86499L33.1159 9.75115C33.0886 9.71179 33.0527 9.67729 33.0322 9.65851ZM25.6153 9.18021V4.39777L29.8621 9.18021H25.6153ZM31.1208 36.3517C31.1208 38.0957 29.7526 39.501 28.0155 39.501H5.98002C4.24123 39.501 2.8747 38.0939 2.8747 36.3957V5.81046C2.8747 4.07167 4.28183 2.70514 5.98002 2.70514H23.5406V10.1735C23.5406 10.7177 23.9759 11.2108 24.578 11.2108H31.1208V36.3517Z" fill="#A5A7A9" stroke="#A5A7A9" stroke-width="0.4"/>
<path d="M6.94956 11.2111H14.3094C14.8537 11.2111 15.3468 10.7758 15.3468 10.1738C15.3468 9.57854 14.9047 9.13643 14.3094 9.13643H6.94956C6.40531 9.13643 5.91221 9.57174 5.91221 10.1738C5.91221 10.7758 6.40531 11.2111 6.94956 11.2111Z" fill="#A5A7A9" stroke="#A5A7A9" stroke-width="0.4"/>
<path d="M14.3094 19.8H6.94953C6.40528 19.8 5.91218 20.2353 5.91218 20.8373C5.91218 21.3816 6.3475 21.8747 6.94953 21.8747H14.3094C14.8536 21.8747 15.3467 21.4394 15.3467 20.8373C15.3467 20.2862 14.8606 19.8 14.3094 19.8Z" fill="#A5A7A9" stroke="#A5A7A9" stroke-width="0.4"/>
<path d="M13.8444 29.54H15.4844L13.3244 32.16L15.6744 35H13.9844L11.7544 32.23V35H10.2644V29.54H11.7544V32.19L13.8444 29.54ZM21.2205 32.26C21.2205 33.1667 20.9805 33.8667 20.5005 34.36C20.0271 34.8533 19.3805 35.1 18.5605 35.1C18.0538 35.1 17.6005 34.99 17.2005 34.77C16.8071 34.55 16.4971 34.23 16.2705 33.81C16.0438 33.3833 15.9305 32.8667 15.9305 32.26C15.9305 31.3533 16.1671 30.6567 16.6405 30.17C17.1138 29.6833 17.7638 29.44 18.5905 29.44C19.1038 29.44 19.5571 29.55 19.9505 29.77C20.3438 29.99 20.6538 30.31 20.8805 30.73C21.1071 31.1433 21.2205 31.6533 21.2205 32.26ZM17.4505 32.26C17.4505 32.8 17.5371 33.21 17.7105 33.49C17.8905 33.7633 18.1805 33.9 18.5805 33.9C18.9738 33.9 19.2571 33.7633 19.4305 33.49C19.6105 33.21 19.7005 32.8 19.7005 32.26C19.7005 31.72 19.6105 31.3167 19.4305 31.05C19.2571 30.7767 18.9705 30.64 18.5705 30.64C18.1771 30.64 17.8905 30.7767 17.7105 31.05C17.5371 31.3167 17.4505 31.72 17.4505 32.26ZM25.4919 29.44C26.1052 29.44 26.6019 29.68 26.9819 30.16C27.3619 30.6333 27.5519 31.3333 27.5519 32.26C27.5519 33.1867 27.3552 33.8933 26.9619 34.38C26.5685 34.86 26.0652 35.1 25.4519 35.1C25.0585 35.1 24.7452 35.03 24.5119 34.89C24.2785 34.7433 24.0885 34.58 23.9419 34.4H23.8619C23.9152 34.68 23.9419 34.9467 23.9419 35.2V37.4H22.4519V29.54H23.6619L23.8719 30.25H23.9419C24.0885 30.03 24.2852 29.84 24.5319 29.68C24.7785 29.52 25.0985 29.44 25.4919 29.44ZM25.0119 30.63C24.6252 30.63 24.3519 30.75 24.1919 30.99C24.0385 31.23 23.9552 31.5967 23.9419 32.09V32.25C23.9419 32.7767 24.0185 33.1833 24.1719 33.47C24.3319 33.75 24.6185 33.89 25.0319 33.89C25.3719 33.89 25.6219 33.75 25.7819 33.47C25.9485 33.1833 26.0319 32.7733 26.0319 32.24C26.0319 31.1667 25.6919 30.63 25.0119 30.63Z" fill="#A5A7A9"/>
<path d="M5.91221 15.7265C5.91221 16.2708 6.34753 16.7639 6.94956 16.7639H26.6052C27.1495 16.7639 27.6426 16.3285 27.6426 15.7265C27.6426 15.1823 27.2073 14.6892 26.6052 14.6892H6.94956C6.40531 14.6892 5.91221 15.1245 5.91221 15.7265Z" fill="#A5A7A9" stroke="#A5A7A9" stroke-width="0.4"/>
</svg>
