<svg width="25" height="25" viewBox="0 0 25 25" fill="none" xmlns="http://www.w3.org/2000/svg">
<path fill-rule="evenodd" clip-rule="evenodd" d="M3 2H18.0755C18.6278 2 19.0755 2.44771 19.0755 3V11.1433H21.0755V3C21.0755 1.34315 19.7324 0 18.0755 0H3C1.34315 0 0 1.34315 0 3V21.0863C0 22.7432 1.34314 24.0863 3 24.0863H15.5039V22.0863H3C2.44771 22.0863 2 21.6386 2 21.0863V3C2 2.44772 2.44772 2 3 2Z" fill="white"/>
<rect x="17.0612" y="5.01807" width="1.64728" height="13.0468" rx="0.823642" transform="rotate(90 17.0612 5.01807)" fill="white"/>
<rect x="9.68988" y="12.5972" width="1.64728" height="5.81394" rx="0.823642" transform="rotate(90 9.68988 12.5972)" fill="white"/>
<rect x="13.5659" y="8.72119" width="1.64728" height="9.6899" rx="0.823642" transform="rotate(90 13.5659 8.72119)" fill="white"/>
<path fill-rule="evenodd" clip-rule="evenodd" d="M20.1551 14.5342C19.6199 14.5342 19.1861 14.968 19.1861 15.5032V18.4102H16.2791C15.744 18.4102 15.3101 18.8441 15.3101 19.3792C15.3101 19.9144 15.744 20.3482 16.2791 20.3482H19.1861V23.2551C19.1861 23.7902 19.6199 24.2241 20.1551 24.2241C20.6902 24.2241 21.124 23.7903 21.124 23.2551V20.3482H24.031C24.5662 20.3482 25 19.9144 25 19.3792C25 18.8441 24.5662 18.4102 24.031 18.4102H21.124V15.5032C21.124 14.968 20.6902 14.5342 20.1551 14.5342Z" fill="white"/>
</svg>
