<svg width="26" height="30" viewBox="0 0 26 30" fill="none" xmlns="http://www.w3.org/2000/svg">
<path fill-rule="evenodd" clip-rule="evenodd" d="M9 2H23C23.5523 2 24 2.44771 24 3V23C24 23.5523 23.5523 24 23 24H22V26H23C24.6569 26 26 24.6569 26 23V3C26 1.34315 24.6569 0 23 0H9C7.34315 0 6 1.34315 6 3H8C8 2.44772 8.44772 2 9 2Z" fill="#A5A7A9"/>
<path d="M20.0365 10.1451C20.0346 10.1433 20.0326 10.1416 20.0308 10.1399C20.0226 10.1237 20.0056 10.0922 19.9757 10.0608L15.4866 5.02363L15.4869 5.02341L15.4787 5.01527C15.4615 4.99806 15.4438 4.98449 15.4313 4.97536C15.419 4.96639 15.4062 4.9579 15.3972 4.95188L15.396 4.95111C15.3855 4.9441 15.3792 4.93988 15.3742 4.93618C15.3731 4.93542 15.3723 4.93482 15.3717 4.93439L15.3157 4.87835H15.2875C15.2745 4.87152 15.2599 4.86547 15.2437 4.86091C15.1735 4.82956 15.0761 4.8 14.9717 4.8H3.95103C2.22143 4.8 0.8 6.22143 0.8 7.95103V26.049C0.8 27.7786 2.22143 29.2 3.95103 29.2H17.0087C18.7383 29.2 20.1597 27.7786 20.1597 26.049V10.5103C20.1597 10.5056 20.16 10.501 20.1605 10.4909C20.1607 10.4874 20.1609 10.4832 20.1612 10.4782C20.162 10.4621 20.163 10.4386 20.1619 10.4128C20.1596 10.3602 20.1479 10.2857 20.0981 10.2137C20.0765 10.1825 20.0494 10.157 20.0365 10.1451ZM15.6679 9.84026V7.30228L17.9216 9.84026H15.6679ZM18.7674 26.0229C18.7674 27.0127 17.9916 27.8076 17.0087 27.8076H3.95103C2.96638 27.8076 2.19238 27.011 2.19238 26.049V7.92492C2.19238 6.94026 2.98902 6.16627 3.95103 6.16627H14.2755V10.5103C14.2755 10.875 14.5672 11.2065 14.9717 11.2065H18.7674V26.0229Z" fill="#A5A7A9" stroke="#A5A7A9" stroke-width="0.4"/>
<path d="M4.52555 11.2065H8.88681C9.2515 11.2065 9.583 10.9148 9.583 10.5103C9.583 10.1126 9.28454 9.8141 8.88681 9.8141H4.52555C4.16086 9.8141 3.82936 10.1058 3.82936 10.5103C3.82936 10.9148 4.16086 11.2065 4.52555 11.2065Z" fill="#A5A7A9" stroke="#A5A7A9" stroke-width="0.4"/>
<path d="M8.88681 19.7935H4.52555C4.16086 19.7935 3.82936 20.0852 3.82936 20.4897C3.82936 20.8544 4.12103 21.1859 4.52555 21.1859H8.88681C9.2515 21.1859 9.583 20.8942 9.583 20.4897C9.583 20.1181 9.25842 19.7935 8.88681 19.7935Z" fill="#A5A7A9" stroke="#A5A7A9" stroke-width="0.4"/>
<path d="M3.82936 13.8009C3.82936 14.1656 4.12103 14.4971 4.52555 14.4971H16.173C16.5377 14.4971 16.8692 14.2054 16.8692 13.8009C16.8692 13.4362 16.5775 13.1047 16.173 13.1047H4.52555C4.16086 13.1047 3.82936 13.3964 3.82936 13.8009Z" fill="#A5A7A9" stroke="#A5A7A9" stroke-width="0.4"/>
<path d="M16.173 16.5595H4.52555C4.16086 16.5595 3.82936 16.8512 3.82936 17.2557C3.82936 17.6204 4.12103 17.9519 4.52555 17.9519H16.173C16.5377 17.9519 16.8692 17.6602 16.8692 17.2557C16.8692 16.858 16.5707 16.5595 16.173 16.5595Z" fill="#A5A7A9" stroke="#A5A7A9" stroke-width="0.4"/>
</svg>
