<svg width="30" height="29" viewBox="0 0 30 29" fill="none" xmlns="http://www.w3.org/2000/svg">
<path fill-rule="evenodd" clip-rule="evenodd" d="M3 2H18.75C19.3023 2 19.75 2.44772 19.75 3V15H21.75V3C21.75 1.34315 20.4069 0 18.75 0H3C1.34315 0 0 1.34315 0 3V21.8571C0 23.514 1.34315 24.8571 3 24.8571H16.4846C16.1942 24.6822 16 24.3638 16 24V22.8571H3C2.44772 22.8571 2 22.4094 2 21.8571V3C2 2.44772 2.44772 2 3 2Z" fill="#A5A7A9"/>
<path d="M27.614 22.1745C26.585 23.406 25.1063 24.6558 23.394 26.1031L23.3937 26.1033C22.8085 26.5978 22.1454 27.1584 21.457 27.7553M27.614 22.1745L27.7675 22.3028M27.614 22.1745L27.7675 22.3028C27.7675 22.3028 27.7675 22.3028 27.7675 22.3028M27.614 22.1745C28.7643 20.798 29.3 19.4928 29.3 18.0669C29.3 16.6816 28.8211 15.4035 27.9515 14.4679C27.0715 13.5213 25.8639 13 24.551 13C23.5697 13 22.671 13.3077 21.88 13.9144L20.8 14.703M27.7675 22.3028C26.7274 23.5476 25.2378 24.8066 23.5349 26.2458L23.5228 26.2561L23.5228 26.2561C22.9375 26.7506 22.2753 27.3104 21.5881 27.9064L21.457 27.7553M27.7675 22.3028C28.9399 20.8998 29.5 19.5508 29.5 18.0669C29.5 16.6357 29.0051 15.3076 28.098 14.3318L28.098 14.3318C27.1795 13.3437 25.9184 12.8 24.551 12.8C23.525 12.8 22.5836 13.1227 21.7583 13.7557C21.4091 14.0235 21.0888 14.3408 20.8 14.703M21.457 27.7553L21.5881 27.9064M21.457 27.7553C21.2753 27.913 21.0419 28 20.8 28C20.558 28 20.3246 27.913 20.1428 27.7551C19.456 27.1595 18.7939 26.5998 18.2098 26.1062L18.2068 26.1036C16.4941 24.6561 15.0151 23.406 13.9861 22.1747C12.8358 20.798 12.3 19.4928 12.3 18.0669C12.3 16.6816 12.779 15.4035 13.6486 14.4679C14.5286 13.5213 15.7361 13 17.0491 13C18.0304 13 18.9291 13.3077 19.7201 13.9144C20.0677 14.1811 20.387 14.4998 20.6742 14.8663L21.5881 27.9064M21.5881 27.9064C21.3698 28.0958 21.0898 28.2 20.8 28.2C20.5101 28.2 20.2301 28.0958 20.0117 27.9061C19.3261 27.3115 18.6649 26.7527 18.0807 26.2589L18.0791 26.2576L18.0791 26.2576L18.0777 26.2563L18.0761 26.255L18.0669 26.2472C16.3632 24.8074 14.873 23.5479 13.8326 22.3029L13.8326 22.3029C12.6602 20.8998 12.1 19.5508 12.1 18.0669C12.1 16.6357 12.595 15.3076 13.5021 14.3318L13.5021 14.3318C14.4206 13.3437 15.6815 12.8 17.0491 12.8C18.0752 12.8 19.0165 13.1227 19.8418 13.7557L19.8418 13.7558C20.1908 14.0235 20.5113 14.3407 20.8 14.703M21.5881 27.9064L20.8 14.703M14.9062 21.4162L14.9062 21.4162C15.8663 22.5653 17.299 23.777 18.9807 25.1985C18.9811 25.1987 18.9814 25.199 18.9817 25.1992L18.9831 25.2004L18.9848 25.2018C19.5341 25.6661 20.153 26.1893 20.7988 26.7476C21.4482 26.1882 22.0682 25.6641 22.6187 25.199M14.9062 21.4162L14.5271 15.2735C15.1778 14.5736 16.072 14.1876 17.0491 14.1876C17.7595 14.1876 18.4107 14.4107 18.9892 14.8543C19.508 15.2523 19.873 15.7588 20.0887 16.1174L20.0887 16.1175C20.2397 16.3685 20.5068 16.5186 20.8 16.5186C21.0932 16.5186 21.3602 16.3685 21.5113 16.1175C21.7271 15.7588 22.0921 15.2523 22.6108 14.8543C23.1892 14.4107 23.8404 14.1876 24.551 14.1876C25.528 14.1876 26.4223 14.5737 27.0729 15.2735C27.7343 15.9851 28.1043 16.9751 28.1043 18.0669C28.1043 19.2064 27.6808 20.2351 26.6939 21.4162C25.7336 22.5655 24.3008 23.7772 22.6187 25.199M14.9062 21.4162C13.9192 20.2351 13.4957 19.2064 13.4957 18.0669C13.4957 16.9751 13.8657 15.9851 14.5271 15.2735L14.9062 21.4162ZM22.6187 25.199L22.7478 25.3517L22.6187 25.199Z" fill="#A5A7A9" stroke="#A5A7A9" stroke-width="0.4"/>
<rect x="17.6071" y="5.17856" width="1.7" height="13.4643" rx="0.85" transform="rotate(90 17.6071 5.17856)" fill="#A5A7A9"/>
<rect x="10" y="13" width="1.7" height="6" rx="0.85" transform="rotate(90 10 13)" fill="#A5A7A9"/>
<rect x="14" y="9" width="1.7" height="10" rx="0.85" transform="rotate(90 14 9)" fill="#A5A7A9"/>
</svg>
