<svg width="30" height="29" viewBox="0 0 30 29" fill="none" xmlns="http://www.w3.org/2000/svg">
<path d="M23.3935 26.1033L23.3938 26.1031C25.1061 24.6558 26.5848 23.406 27.6138 22.1745M23.3935 26.1033L20.9256 14.8664C21.2129 14.4998 21.5321 14.1811 21.8798 13.9144C22.6709 13.3077 23.5695 13 24.5508 13C25.8637 13 27.0713 13.5213 27.9513 14.4679C28.821 15.4035 29.2998 16.6816 29.2998 18.0669C29.2998 19.4928 28.7641 20.798 27.6138 22.1745M23.3935 26.1033C22.8083 26.5978 22.1452 27.1584 21.4569 27.7553C21.2752 27.913 21.0417 28 20.7998 28C20.5578 28 20.3245 27.913 20.1426 27.7551M23.3935 26.1033L20.1426 27.7551M27.6138 22.1745L27.7673 22.3028C27.7673 22.3028 27.7673 22.3028 27.7673 22.3028M27.6138 22.1745L27.7673 22.3028M27.7673 22.3028C26.7272 23.5475 25.2376 24.8066 23.5348 26.2458L23.5226 26.2561L23.5226 26.2561C22.9374 26.7506 22.2752 27.3104 21.588 27.9064L21.4575 27.7561L21.5879 27.9064C21.3696 28.0958 21.0896 28.2 20.7998 28.2C20.5099 28.2 20.2299 28.0958 20.0115 27.9061C19.3259 27.3115 18.6647 26.7527 18.0805 26.2589L18.0789 26.2576L18.079 26.2576L18.0775 26.2563L18.076 26.255L18.0667 26.2472C16.3631 24.8074 14.8728 23.5479 13.8324 22.3029L13.8324 22.3029C12.66 20.8998 12.0998 19.5508 12.0998 18.0669C12.0998 16.6357 12.5949 15.3076 13.5019 14.3318L13.5019 14.3318C14.4205 13.3437 15.6814 12.8 17.0489 12.8C18.075 12.8 19.0163 13.1227 19.8416 13.7557L19.8417 13.7558C20.1907 14.0235 20.5111 14.3407 20.7998 14.703C21.0886 14.3408 21.409 14.0235 21.7581 13.7557C22.5834 13.1227 23.5248 12.8 24.5508 12.8C25.9183 12.8 27.1793 13.3437 28.0978 14.3318L28.0978 14.3318C29.0049 15.3076 29.4998 16.6357 29.4998 18.0669C29.4998 19.5508 28.9397 20.8998 27.7673 22.3028ZM14.906 21.4162L14.906 21.4162C15.8662 22.5653 17.2989 23.7771 18.9807 25.1986C18.9809 25.1988 18.9812 25.199 18.9815 25.1992L18.9829 25.2004L18.9846 25.2018C19.5339 25.6661 20.1528 26.1893 20.7986 26.7476C21.448 26.1882 22.068 25.6641 22.6186 25.199C24.3006 23.7772 25.7334 22.5655 26.6937 21.4162C27.6806 20.2351 28.1041 19.2064 28.1041 18.0669C28.1041 16.9751 27.7341 15.9851 27.0727 15.2735C26.4221 14.5737 25.5279 14.1876 24.5508 14.1876C23.8402 14.1876 23.1891 14.4107 22.6106 14.8543C22.0919 15.2523 21.7269 15.7588 21.5111 16.1175C21.36 16.3685 21.093 16.5186 20.7998 16.5186C20.5066 16.5186 20.2396 16.3685 20.0885 16.1175L20.0885 16.1174C19.8728 15.7588 19.5078 15.2523 18.989 14.8543C18.4105 14.4107 17.7594 14.1876 17.0489 14.1876C16.0718 14.1876 15.1776 14.5736 14.5269 15.2735L14.906 21.4162ZM14.906 21.4162C13.919 20.2351 13.4955 19.2064 13.4955 18.0669C13.4955 16.9751 13.8655 15.9851 14.5269 15.2735L14.906 21.4162ZM20.1426 27.7551C19.4559 27.1595 18.7937 26.5998 18.2096 26.1062L20.1426 27.7551Z" fill="#A5A7A9" stroke="#A5A7A9" stroke-width="0.4"/>
<path fill-rule="evenodd" clip-rule="evenodd" d="M3 2H18.75C19.3023 2 19.75 2.44772 19.75 3V15H21.75V3C21.75 1.34315 20.4069 0 18.75 0H3C1.34315 0 0 1.34315 0 3V21.8571C0 23.514 1.34315 24.8571 3 24.8571H16.4846C16.1942 24.6822 16 24.3638 16 24V22.8571H3C2.44772 22.8571 2 22.4094 2 21.8571V3C2 2.44772 2.44772 2 3 2Z" fill="#A5A7A9"/>
<rect x="17.6074" y="5.17871" width="1.7" height="13.4643" rx="0.85" transform="rotate(90 17.6074 5.17871)" fill="#A5A7A9"/>
<rect x="10" y="13" width="1.7" height="6" rx="0.85" transform="rotate(90 10 13)" fill="#A5A7A9"/>
<rect x="14" y="9" width="1.7" height="10" rx="0.85" transform="rotate(90 14 9)" fill="#A5A7A9"/>
</svg>
