<svg width="19" height="15" viewBox="0 0 19 15" fill="none" xmlns="http://www.w3.org/2000/svg">
<path d="M3.71005 3.92445C3.71005 3.66832 3.91768 3.46069 4.17381 3.46069C4.42993 3.46069 4.63757 3.66832 4.63757 3.92445V10.417C4.63757 10.6732 4.42993 10.8808 4.17381 10.8808C3.91768 10.8808 3.71005 10.6732 3.71005 10.417V3.92445Z" fill="white"/>
<path d="M0 3.92445C0 3.66832 0.207631 3.46069 0.463756 3.46069C0.719882 3.46069 0.927513 3.66832 0.927513 3.92445V10.417C0.927513 10.6732 0.719882 10.8808 0.463756 10.8808C0.207631 10.8808 0 10.6732 0 10.417V3.92445Z" fill="white"/>
<path d="M0.463757 4.38831C0.207631 4.38831 -9.07583e-09 4.18067 -2.02714e-08 3.92455C-3.1467e-08 3.66842 0.207631 3.46079 0.463756 3.46079L4.17381 3.46079C4.42993 3.46079 4.63756 3.66842 4.63756 3.92455C4.63756 4.18067 4.42993 4.38831 4.17381 4.38831L0.463757 4.38831Z" fill="white"/>
<path d="M0.463757 10.8809C0.207631 10.8809 -9.07583e-09 10.6732 -2.02714e-08 10.4171C-3.1467e-08 10.161 0.207631 9.95335 0.463756 9.95335L4.17381 9.95335C4.42993 9.95335 4.63756 10.161 4.63756 10.4171C4.63756 10.6732 4.42993 10.8809 4.17381 10.8809L0.463757 10.8809Z" fill="white"/>
<path d="M4.20575 10.9265C3.95322 10.8235 3.83202 10.5353 3.93504 10.2827C4.03806 10.0302 4.32629 9.90902 4.57882 10.012L12.6024 13.2853C12.8549 13.3883 12.9761 13.6765 12.8731 13.9291C12.77 14.1816 12.4818 14.3028 12.2293 14.1998L4.20575 10.9265Z" fill="white"/>
<path d="M4.1673 3.45983C3.91477 3.56285 3.79357 3.85108 3.89659 4.10361C3.99961 4.35614 4.28784 4.47734 4.54037 4.37432L12.5639 1.10108C12.8164 0.99806 12.9376 0.70983 12.8346 0.457301C12.7316 0.204772 12.4434 0.0835714 12.1908 0.186591L4.1673 3.45983Z" fill="white"/>
<path d="M12.8924 0.678233C12.8924 0.422108 12.6848 0.214478 12.4287 0.214477C12.1725 0.214477 11.9649 0.422108 11.9649 0.678233L11.9649 13.6634C11.9649 13.9195 12.1725 14.1272 12.4287 14.1272C12.6848 14.1272 12.8924 13.9195 12.8924 13.6634L12.8924 0.678233Z" fill="white"/>
<path fill-rule="evenodd" clip-rule="evenodd" d="M16.2787 4.59228C16.2787 4.59224 16.2788 4.59233 16.2787 4.59228C16.1661 4.36232 16.2612 4.08458 16.4911 3.97187C16.7211 3.85915 16.9989 3.95421 17.1116 4.18419L16.6954 4.38823C17.1116 4.18419 17.1116 4.18412 17.1116 4.18419L17.1128 4.1865L17.1152 4.19154L17.1239 4.20963C17.1314 4.22517 17.142 4.24758 17.1554 4.27626C17.1821 4.33361 17.2199 4.41615 17.2649 4.5191C17.355 4.72469 17.475 5.01328 17.5952 5.34624C17.8306 5.99844 18.0865 6.87318 18.0865 7.63459C18.0865 8.39601 17.8306 9.27075 17.5952 9.92295C17.475 10.2559 17.355 10.5445 17.2649 10.7501C17.2199 10.853 17.1821 10.9356 17.1554 10.9929C17.142 11.0216 17.1314 11.044 17.1239 11.0596L17.1152 11.0776L17.1128 11.0827L17.112 11.0842C17.112 11.0843 17.1116 11.085 16.6952 10.8809L17.112 11.0842C16.9993 11.3142 16.7211 11.41 16.4911 11.2973C16.2612 11.1846 16.1661 10.9068 16.2787 10.6769M16.2787 10.6769L16.2805 10.6732L16.2873 10.6591C16.2935 10.6462 16.3028 10.6266 16.3148 10.6009C16.3387 10.5495 16.3735 10.4736 16.4153 10.378C16.4992 10.1865 16.6111 9.91737 16.7228 9.60801C16.9511 8.97555 17.159 8.22714 17.159 7.63459C17.159 7.04204 16.9511 6.29364 16.7228 5.66118C16.6111 5.35182 16.4992 5.0827 16.4153 4.89116C16.3735 4.79555 16.3387 4.71968 16.3148 4.66825C16.3028 4.64254 16.2935 4.62297 16.2873 4.61013L16.2805 4.59599L16.2787 4.59228" fill="white"/>
<path fill-rule="evenodd" clip-rule="evenodd" d="M14.4577 5.57814L14.4591 5.58011L14.4654 5.58946C14.4712 5.59812 14.4801 5.61156 14.4917 5.62934C14.515 5.66492 14.5488 5.71778 14.5898 5.78456C14.6719 5.91853 14.7812 6.1064 14.8901 6.32176C15.1181 6.77296 15.304 7.26835 15.304 7.63464C15.304 8.00092 15.1181 8.49631 14.8901 8.94751C14.7812 9.16287 14.6719 9.35074 14.5898 9.48471C14.5488 9.55149 14.515 9.60435 14.4917 9.63993C14.4801 9.65772 14.4712 9.67115 14.4654 9.67981L14.4591 9.68916L14.4578 9.69102C14.4578 9.69099 14.4578 9.69106 14.4578 9.69102C14.3131 9.90219 14.3667 10.1909 14.5778 10.3358C14.789 10.4807 15.0777 10.427 15.2226 10.2158L14.8402 9.95342C15.2226 10.2158 15.2225 10.2159 15.2226 10.2158L15.224 10.2138L15.2266 10.2099L15.2359 10.1962C15.2436 10.1846 15.2546 10.168 15.2684 10.147C15.2959 10.1049 15.3345 10.0446 15.3805 9.9695C15.4723 9.81982 15.5948 9.60932 15.7179 9.36588C15.9536 8.89947 16.2315 8.23547 16.2315 7.63464C16.2315 7.0338 15.9536 6.3698 15.7179 5.90339C15.5948 5.65995 15.4723 5.44945 15.3805 5.29977C15.3345 5.22472 15.2959 5.16442 15.2684 5.12231C15.2546 5.10124 15.2436 5.08469 15.2359 5.07308L15.2266 5.05941L15.224 5.05545L15.2231 5.05421C15.2231 5.05414 15.2226 5.05346 14.8404 5.31575L15.2231 5.05421C15.0782 4.84302 14.789 4.78855 14.5778 4.93347C14.3667 5.07836 14.3129 5.36696 14.4577 5.57814Z" fill="white"/>
<path fill-rule="evenodd" clip-rule="evenodd" d="M5.50616 12.4544C4.97389 12.822 4.15411 13.1837 3.24677 12.8492C2.45595 12.5577 1.99468 11.9484 1.73754 11.4511C1.60771 11.1999 1.52419 10.9669 1.47284 10.7962C1.44704 10.7104 1.42902 10.6392 1.41717 10.5879C1.41124 10.5622 1.40683 10.5414 1.40375 10.5261L1.40009 10.5074L1.39896 10.5013L1.39856 10.4991L1.3984 10.4982L1.39833 10.4978C1.3983 10.4976 1.39827 10.4975 1.85502 10.4171C2.31177 10.3368 2.31174 10.3367 2.31171 10.3365L2.31166 10.3362L2.31157 10.3357L2.31147 10.3352C2.31143 10.335 2.31146 10.3351 2.31156 10.3356L2.31293 10.3426C2.3144 10.3499 2.317 10.3623 2.3209 10.3792C2.32872 10.413 2.34167 10.4646 2.36105 10.529C2.40005 10.6587 2.46377 10.8362 2.56146 11.0251C2.75933 11.4078 3.07414 11.7971 3.56759 11.979C4.05927 12.1602 4.55033 11.9873 4.97912 11.6912C5.18767 11.5471 5.36119 11.3869 5.48323 11.2612C5.54375 11.1989 5.59033 11.1464 5.62094 11.1105C5.63621 11.0927 5.64742 11.079 5.6543 11.0705L5.66132 11.0618L5.6618 11.0612C5.66171 11.0613 5.66161 11.0614 6.02884 11.3446C6.39606 11.6279 6.39595 11.628 6.39585 11.6281L6.39561 11.6284L6.39504 11.6292L6.39357 11.6311L6.38925 11.6366L6.37523 11.6541C6.36351 11.6686 6.34709 11.6885 6.3262 11.7129C6.28448 11.7618 6.22461 11.8291 6.14865 11.9073C5.99773 12.0628 5.77814 12.2666 5.50616 12.4544Z" fill="white"/>
</svg>
