<svg width="31" height="32" viewBox="0 0 31 32" fill="none" xmlns="http://www.w3.org/2000/svg">
<path fill-rule="evenodd" clip-rule="evenodd" d="M3 4.5H18.75C19.3023 4.5 19.75 4.94772 19.75 5.5V14.0173C20.2318 13.9356 20.727 13.8931 21.2321 13.8931C21.406 13.8931 21.5786 13.8981 21.75 13.908V5.5C21.75 3.84315 20.4069 2.5 18.75 2.5H3C1.34315 2.5 0 3.84315 0 5.5V24.3571C0 26.014 1.34315 27.3571 3 27.3571H13.762C13.3748 26.7379 13.0625 26.067 12.8377 25.3571H3C2.44772 25.3571 2 24.9094 2 24.3571V5.5C2 4.94772 2.44772 4.5 3 4.5Z" fill="#A5A7A9"/>
<circle cx="21.2321" cy="22.6961" r="7.80357" stroke="#A5A7A9" stroke-width="2"/>
<rect x="19.6786" y="18.0356" width="1.7" height="6.21429" rx="0.85" fill="#A5A7A9"/>
<rect x="24.8571" y="22.6001" width="1.7" height="5.17857" rx="0.85" transform="rotate(90 24.8571 22.6001)" fill="#A5A7A9"/>
<rect x="6" y="8" width="2" height="2" rx="1" transform="rotate(90 6 8)" fill="#A5A7A9"/>
<rect x="6" y="12" width="2" height="2" rx="1" transform="rotate(90 6 12)" fill="#A5A7A9"/>
<rect x="6" y="16" width="2" height="2" rx="1" transform="rotate(90 6 16)" fill="#A5A7A9"/>
<rect x="6" y="20" width="2" height="2" rx="1" transform="rotate(90 6 20)" fill="#A5A7A9"/>
<rect x="10" y="8" width="2" height="2" rx="1" transform="rotate(90 10 8)" fill="#A5A7A9"/>
<rect x="10" y="12" width="2" height="2" rx="1" transform="rotate(90 10 12)" fill="#A5A7A9"/>
<rect x="10" y="16" width="2" height="2" rx="1" transform="rotate(90 10 16)" fill="#A5A7A9"/>
<rect x="14" y="16" width="2" height="2" rx="1" transform="rotate(90 14 16)" fill="#A5A7A9"/>
<rect x="10" y="20" width="2" height="2" rx="1" transform="rotate(90 10 20)" fill="#A5A7A9"/>
<rect x="14" y="8" width="2" height="2" rx="1" transform="rotate(90 14 8)" fill="#A5A7A9"/>
<rect x="14" y="12" width="2" height="2" rx="1" transform="rotate(90 14 12)" fill="#A5A7A9"/>
<rect x="18" y="8" width="2" height="2" rx="1" transform="rotate(90 18 8)" fill="#A5A7A9"/>
<rect x="18" y="12" width="2" height="2" rx="1" transform="rotate(90 18 12)" fill="#A5A7A9"/>
<rect x="5" y="0.5" width="2" height="6" rx="1" fill="#A5A7A9"/>
<rect x="10" y="0.5" width="2" height="6" rx="1" fill="#A5A7A9"/>
<rect x="15" y="0.5" width="2" height="6" rx="1" fill="#A5A7A9"/>
</svg>
