<svg width="41" height="20" viewBox="0 0 41 20" fill="none" xmlns="http://www.w3.org/2000/svg">
<path fill-rule="evenodd" clip-rule="evenodd" d="M37.4649 2H18.5787L26.6432 9.10183L37.4649 2ZM16.7388 3.03554L14.7128 15.9112C14.6173 16.518 15.0864 17.0667 15.7007 17.0667H35.6268C36.1191 17.0667 36.5382 16.7084 36.6147 16.2221L38.5935 3.64601L27.2621 11.0824C27.2165 11.1123 27.1693 11.138 27.1209 11.1596C26.7546 11.4186 26.2422 11.4065 25.8863 11.0931L16.7789 3.07285C16.7651 3.06071 16.7517 3.04827 16.7388 3.03554ZM14.7931 2.53369C15.0227 1.07482 16.2798 0 17.7567 0H37.6829C39.5257 0 40.9328 1.6459 40.6464 3.46631L38.5904 16.533C38.3608 17.9918 37.1037 19.0667 35.6268 19.0667H15.7007C13.8579 19.0667 12.4507 17.4208 12.7371 15.6004L14.7931 2.53369Z" fill="#A5A7A9"/>
<rect x="3.7" y="4" width="8" height="2" rx="1" fill="#A5A7A9"/>
<rect y="8" width="11" height="2" rx="1" fill="#A5A7A9"/>
<rect x="5.30003" y="12" width="5" height="2" rx="1" fill="#A5A7A9"/>
</svg>
