<svg width="22" height="22" viewBox="0 0 22 22" fill="none" xmlns="http://www.w3.org/2000/svg">
<mask id="path-1-outside-1" maskUnits="userSpaceOnUse" x="0" y="0" width="22" height="22" fill="black">
<rect fill="white" width="22" height="22"/>
<path d="M20.4767 16.4294L16.4283 13.7296C15.9146 13.3898 15.2259 13.5016 14.8461 13.9866L13.6668 15.5028C13.5153 15.7026 13.2398 15.7606 13.0205 15.6388L12.7962 15.5152C12.0526 15.1098 11.1274 14.6052 9.26315 12.7404C7.39895 10.8755 6.89332 9.94953 6.488 9.20728L6.365 8.98296C6.24153 8.76375 6.2984 8.48709 6.49831 8.33433L8.01351 7.15543C8.49832 6.77557 8.61031 6.08711 8.27084 5.5732L5.57103 1.52481C5.22313 1.00149 4.52513 0.844388 3.98653 1.16815L2.29365 2.18508C1.76173 2.49779 1.37148 3.00424 1.20474 3.5983C0.595133 5.81947 1.05373 9.65287 6.70068 15.3005C11.1927 19.7922 14.5368 21.0001 16.8353 21.0001C17.3643 21.0023 17.8912 20.9335 18.4019 20.7954C18.9961 20.6289 19.5026 20.2386 19.8151 19.7065L20.833 18.0147C21.1573 17.476 21.0002 16.7775 20.4767 16.4294ZM20.2587 17.6727L19.2431 19.3655C19.0187 19.7496 18.6544 20.0319 18.2265 20.1535C16.176 20.7165 12.5936 20.2502 7.17228 14.8289C1.75099 9.40758 1.28473 5.82548 1.8477 3.77465C1.96941 3.34624 2.25213 2.98146 2.63663 2.75671L4.32952 1.74112C4.56321 1.60051 4.86616 1.66867 5.01712 1.89576L6.4837 4.0976L7.71463 5.9438C7.86204 6.16671 7.81361 6.46548 7.60331 6.63043L6.08775 7.80933C5.62653 8.162 5.49482 8.80012 5.77879 9.30657L5.89913 9.52522C6.32512 10.3065 6.85473 11.2784 8.78826 13.2116C10.7218 15.1448 11.6934 15.6745 12.4743 16.1004L12.6933 16.2211C13.1997 16.505 13.8379 16.3733 14.1905 15.9121L15.3694 14.3966C15.5344 14.1864 15.8331 14.138 16.0561 14.2852L20.1041 16.9851C20.3314 17.1359 20.3995 17.439 20.2587 17.6727Z"/>
</mask>
<path d="M20.4767 16.4294L16.4283 13.7296C15.9146 13.3898 15.2259 13.5016 14.8461 13.9866L13.6668 15.5028C13.5153 15.7026 13.2398 15.7606 13.0205 15.6388L12.7962 15.5152C12.0526 15.1098 11.1274 14.6052 9.26315 12.7404C7.39895 10.8755 6.89332 9.94953 6.488 9.20728L6.365 8.98296C6.24153 8.76375 6.2984 8.48709 6.49831 8.33433L8.01351 7.15543C8.49832 6.77557 8.61031 6.08711 8.27084 5.5732L5.57103 1.52481C5.22313 1.00149 4.52513 0.844388 3.98653 1.16815L2.29365 2.18508C1.76173 2.49779 1.37148 3.00424 1.20474 3.5983C0.595133 5.81947 1.05373 9.65287 6.70068 15.3005C11.1927 19.7922 14.5368 21.0001 16.8353 21.0001C17.3643 21.0023 17.8912 20.9335 18.4019 20.7954C18.9961 20.6289 19.5026 20.2386 19.8151 19.7065L20.833 18.0147C21.1573 17.476 21.0002 16.7775 20.4767 16.4294ZM20.2587 17.6727L19.2431 19.3655C19.0187 19.7496 18.6544 20.0319 18.2265 20.1535C16.176 20.7165 12.5936 20.2502 7.17228 14.8289C1.75099 9.40758 1.28473 5.82548 1.8477 3.77465C1.96941 3.34624 2.25213 2.98146 2.63663 2.75671L4.32952 1.74112C4.56321 1.60051 4.86616 1.66867 5.01712 1.89576L6.4837 4.0976L7.71463 5.9438C7.86204 6.16671 7.81361 6.46548 7.60331 6.63043L6.08775 7.80933C5.62653 8.162 5.49482 8.80012 5.77879 9.30657L5.89913 9.52522C6.32512 10.3065 6.85473 11.2784 8.78826 13.2116C10.7218 15.1448 11.6934 15.6745 12.4743 16.1004L12.6933 16.2211C13.1997 16.505 13.8379 16.3733 14.1905 15.9121L15.3694 14.3966C15.5344 14.1864 15.8331 14.138 16.0561 14.2852L20.1041 16.9851C20.3314 17.1359 20.3995 17.439 20.2587 17.6727Z" fill="white"/>
<path d="M20.4767 16.4294L20.1993 16.8454L20.1999 16.8458L20.4767 16.4294ZM16.4283 13.7296L16.7057 13.3136L16.7042 13.3126L16.4283 13.7296ZM14.8461 13.9866L14.4524 13.6783L14.4514 13.6796L14.8461 13.9866ZM13.6668 15.5028L13.2721 15.1958L13.2684 15.2007L13.6668 15.5028ZM13.0205 15.6388L13.2633 15.2017L13.2619 15.2009L13.0205 15.6388ZM12.7962 15.5152L13.0376 15.0773L13.0355 15.0761L12.7962 15.5152ZM6.488 9.20728L6.92683 8.96764L6.92642 8.96688L6.488 9.20728ZM6.365 8.98296L6.80344 8.74255L6.80064 8.73758L6.365 8.98296ZM6.49831 8.33433L6.80191 8.73163L6.80534 8.72896L6.49831 8.33433ZM8.01351 7.15543L8.32055 7.55006L8.32189 7.54901L8.01351 7.15543ZM8.27084 5.5732L8.68804 5.29761L8.68682 5.29578L8.27084 5.5732ZM5.57103 1.52481L5.15465 1.80162L5.15505 1.80222L5.57103 1.52481ZM3.98653 1.16815L4.244 1.59677L4.24414 1.59669L3.98653 1.16815ZM2.29365 2.18508L2.54706 2.61613L2.55111 2.61369L2.29365 2.18508ZM1.20474 3.5983L0.723335 3.46317L0.722568 3.46596L1.20474 3.5983ZM6.70068 15.3005L6.3471 15.654L6.34714 15.654L6.70068 15.3005ZM16.8353 21.0001L16.8375 20.5001H16.8353V21.0001ZM18.4019 20.7954L18.5324 21.2781L18.5368 21.2769L18.4019 20.7954ZM19.8151 19.7065L19.3866 19.4488L19.384 19.4533L19.8151 19.7065ZM20.833 18.0147L20.4046 17.7568L20.4046 17.7569L20.833 18.0147ZM20.2587 17.6727L19.8305 17.4146L19.8299 17.4154L20.2587 17.6727ZM19.2431 19.3655L18.8143 19.1083L18.8114 19.1133L19.2431 19.3655ZM18.2265 20.1535L18.3589 20.6357L18.3631 20.6345L18.2265 20.1535ZM1.8477 3.77465L1.36672 3.638L1.36554 3.64229L1.8477 3.77465ZM2.63663 2.75671L2.88896 3.18841L2.89385 3.18548L2.63663 2.75671ZM4.32952 1.74112L4.58674 2.16988L4.5873 2.16955L4.32952 1.74112ZM5.01712 1.89576L4.60074 2.17256L4.60098 2.17294L5.01712 1.89576ZM6.4837 4.0976L6.06756 4.37478L6.06769 4.37497L6.4837 4.0976ZM7.71463 5.9438L8.13169 5.668L8.13064 5.66643L7.71463 5.9438ZM7.60331 6.63043L7.9103 7.02509L7.91189 7.02385L7.60331 6.63043ZM6.08775 7.80933L6.39147 8.20653L6.39474 8.20399L6.08775 7.80933ZM5.77879 9.30657L6.21684 9.06547L6.21491 9.06203L5.77879 9.30657ZM5.89913 9.52522L6.33812 9.28587L6.33717 9.28414L5.89913 9.52522ZM8.78826 13.2116L8.43474 13.5652L8.43474 13.5652L8.78826 13.2116ZM12.4743 16.1004L12.7156 15.6625L12.7138 15.6615L12.4743 16.1004ZM12.6933 16.2211L12.9378 15.7849L12.9346 15.7832L12.6933 16.2211ZM14.1905 15.9121L13.7959 15.6051L13.7933 15.6084L14.1905 15.9121ZM15.3694 14.3966L14.9761 14.0878L14.9748 14.0896L15.3694 14.3966ZM16.0561 14.2852L16.3335 13.8693L16.3316 13.868L16.0561 14.2852ZM20.1041 16.9851L19.8267 17.401L19.8276 17.4016L20.1041 16.9851ZM20.7541 16.0134L16.7057 13.3136L16.1509 14.1456L20.1993 16.8454L20.7541 16.0134ZM16.7042 13.3126C15.973 12.8289 14.993 12.9881 14.4524 13.6783L15.2397 14.2949C15.4588 14.0151 15.8561 13.9506 16.1524 14.1466L16.7042 13.3126ZM14.4514 13.6796L13.2721 15.1958L14.0615 15.8098L15.2408 14.2936L14.4514 13.6796ZM13.2684 15.2007C13.2673 15.2022 13.2651 15.2027 13.2633 15.2017L12.7777 16.0759C13.2145 16.3185 13.7633 16.2031 14.0652 15.805L13.2684 15.2007ZM13.2619 15.2009L13.0376 15.0773L12.5548 15.953L12.7792 16.0767L13.2619 15.2009ZM13.0355 15.0761C12.329 14.691 11.4434 14.2141 9.61677 12.3869L8.90953 13.0938C10.8113 14.9963 11.7762 15.5286 12.5569 15.9542L13.0355 15.0761ZM9.61677 12.3869C7.79004 10.5595 7.31204 9.67306 6.92683 8.96764L6.04916 9.44691C6.4746 10.226 7.00785 11.1915 8.90953 13.0938L9.61677 12.3869ZM6.92642 8.96688L6.80342 8.74256L5.92658 9.22335L6.04958 9.44767L6.92642 8.96688ZM6.80064 8.73758C6.79953 8.7356 6.80002 8.73305 6.8019 8.73161L6.19472 7.93705C5.79678 8.24114 5.68353 8.79191 5.92935 9.22834L6.80064 8.73758ZM6.80534 8.72896L8.32055 7.55005L7.70648 6.76081L6.19127 7.93971L6.80534 8.72896ZM8.32189 7.54901C9.01173 7.00851 9.17108 6.02888 8.68804 5.29761L7.85364 5.84878C8.04953 6.14533 7.98492 6.54264 7.70514 6.76185L8.32189 7.54901ZM8.68682 5.29578L5.98701 1.2474L5.15505 1.80222L7.85486 5.85061L8.68682 5.29578ZM5.98741 1.248C5.49151 0.502052 4.4966 0.278148 3.72893 0.739622L4.24414 1.59669C4.55365 1.41063 4.95474 1.50092 5.15465 1.80162L5.98741 1.248ZM3.72906 0.739541L2.03618 1.75646L2.55111 2.61369L4.244 1.59677L3.72906 0.739541ZM2.04024 1.75404C1.39697 2.13223 0.925007 2.74471 0.723343 3.46317L1.68613 3.73342C1.81796 3.26376 2.12649 2.86335 2.54705 2.61611L2.04024 1.75404ZM0.722568 3.46596C0.045568 5.9327 0.636865 9.9431 6.3471 15.654L7.05425 14.9469C1.4706 9.36264 1.1447 5.70624 1.68691 3.73063L0.722568 3.46596ZM6.34714 15.654C10.8877 20.1942 14.3516 21.5001 16.8353 21.5001V20.5001C14.722 20.5001 11.4977 19.3901 7.05422 14.9469L6.34714 15.654ZM16.8332 21.5001C17.4069 21.5025 17.9785 21.4279 18.5324 21.2781L18.2714 20.3128C17.8039 20.4392 17.3216 20.5022 16.8375 20.5001L16.8332 21.5001ZM18.5368 21.2769C19.2555 21.0754 19.8682 20.6034 20.2462 19.9598L19.384 19.4533C19.1369 19.8739 18.7366 20.1824 18.2669 20.314L18.5368 21.2769ZM20.2435 19.9643L21.2615 18.2724L20.4046 17.7569L19.3867 19.4488L20.2435 19.9643ZM21.2614 18.2725C21.7236 17.5047 21.4998 16.5092 20.7535 16.0131L20.1999 16.8458C20.5007 17.0458 20.591 17.4472 20.4046 17.7568L21.2614 18.2725ZM19.8299 17.4154L18.8143 19.1083L19.6719 19.6228L20.6875 17.9299L19.8299 17.4154ZM18.8114 19.1133C18.6522 19.3858 18.3936 19.5863 18.0899 19.6725L18.3631 20.6345C18.9152 20.4776 19.3853 20.1133 19.6748 19.6178L18.8114 19.1133ZM18.0941 19.6713C16.2956 20.1651 12.8908 19.8403 7.52584 14.4753L6.81873 15.1824C12.2964 20.6601 16.0564 21.2678 18.3589 20.6357L18.0941 19.6713ZM7.52584 14.4753C2.16091 9.11039 1.83606 5.70587 2.32986 3.90701L1.36554 3.64229C0.733402 5.9451 1.34107 9.70477 6.81873 15.1824L7.52584 14.4753ZM2.32867 3.91129C2.4151 3.60706 2.61588 3.34799 2.88895 3.18838L2.38431 2.32505C1.88837 2.61494 1.52372 3.08543 1.36673 3.63801L2.32867 3.91129ZM2.89385 3.18548L4.58674 2.16988L4.07229 1.31236L2.37941 2.32795L2.89385 3.18548ZM4.5873 2.16955C4.59186 2.1668 4.59779 2.16813 4.60074 2.17256L5.43351 1.61896C5.13453 1.1692 4.53456 1.03421 4.07173 1.3127L4.5873 2.16955ZM4.60098 2.17294L6.06756 4.37478L6.89984 3.82042L5.43326 1.61858L4.60098 2.17294ZM6.06769 4.37497L7.29862 6.22117L8.13064 5.66643L6.89971 3.82023L6.06769 4.37497ZM7.29757 6.21959C7.30129 6.22521 7.30009 6.23281 7.29473 6.23701L7.91189 7.02385C8.32713 6.69815 8.42279 6.10821 8.13168 5.668L7.29757 6.21959ZM7.29632 6.23577L5.78076 7.41467L6.39474 8.20399L7.9103 7.02509L7.29632 6.23577ZM5.78404 7.41214C5.12517 7.91595 4.93699 8.82758 5.34267 9.5511L6.21491 9.06203C6.05266 8.77266 6.1279 8.40805 6.39146 8.20652L5.78404 7.41214ZM5.34075 9.54765L5.46109 9.76631L6.33717 9.28414L6.21683 9.06548L5.34075 9.54765ZM5.46015 9.76458C5.90595 10.5822 6.46315 11.594 8.43474 13.5652L9.14179 12.8581C7.2463 10.9629 6.74429 10.0308 6.33812 9.28587L5.46015 9.76458ZM8.43474 13.5652C10.4063 15.5364 11.4177 16.0936 12.2349 16.5394L12.7138 15.6615C11.9691 15.2553 11.0373 14.7533 9.14178 12.8581L8.43474 13.5652ZM12.233 16.5383L12.452 16.659L12.9346 15.7832L12.7156 15.6625L12.233 16.5383ZM12.4488 16.6572C13.1722 17.0628 14.0839 16.8747 14.5877 16.2158L13.7933 15.6084C13.5918 15.8719 13.2272 15.9472 12.9378 15.785L12.4488 16.6572ZM14.5852 16.2191L15.7641 14.7036L14.9748 14.0896L13.7959 15.6051L14.5852 16.2191ZM15.7627 14.7053C15.7669 14.6999 15.7747 14.6986 15.7805 14.7025L16.3316 13.868C15.8915 13.5774 15.3019 13.6728 14.9761 14.0878L15.7627 14.7053ZM15.7786 14.7012L19.8267 17.401L20.3815 16.5691L16.3335 13.8693L15.7786 14.7012ZM19.8276 17.4016C19.8293 17.4028 19.8299 17.4035 19.8302 17.404C19.8307 17.4047 19.8312 17.4059 19.8316 17.4075C19.832 17.4091 19.8319 17.4104 19.8318 17.4113C19.8317 17.4118 19.8315 17.4128 19.8305 17.4146L20.6869 17.9307C20.9659 17.4679 20.8309 16.8674 20.3806 16.5685L19.8276 17.4016Z" fill="white" mask="url(#path-1-outside-1)"/>
</svg>
