<svg width="19" height="25" viewBox="0 0 19 25" fill="none" xmlns="http://www.w3.org/2000/svg">
<path d="M9.49968 25C8.95397 25 8.4653 24.717 8.19255 24.2429C8.18967 24.238 8.18688 24.2329 8.1841 24.2279L1.98479 12.8809C0.505001 10.1724 0.547432 6.95749 2.09831 4.28113C3.61555 1.66277 6.31047 0.0631103 9.30725 0.00197754C9.43527 -0.00065918 9.56398 -0.00065918 9.69191 0.00197754C12.6887 0.0631103 15.3837 1.66277 16.9009 4.28113C18.4518 6.95749 18.4943 10.1723 17.0145 12.8809L10.8152 24.2279C10.8124 24.2329 10.8096 24.238 10.8067 24.2429C10.534 24.717 10.0454 25 9.49968 25ZM9.49963 1.56252C9.44597 1.56252 9.39245 1.56306 9.33903 1.56414C6.89279 1.61404 4.69133 2.92258 3.45017 5.06453C2.17541 7.26448 2.14016 9.90642 3.35593 12.1317L9.49963 23.3768L15.6433 12.1318C16.8591 9.90642 16.8238 7.26448 15.549 5.06453C14.3078 2.92263 12.1064 1.61404 9.66013 1.56414C9.60685 1.56306 9.55329 1.56252 9.49963 1.56252Z" fill="#8D8D8D"/>
<path d="M9.5 11.3281C7.56147 11.3281 5.98438 9.75103 5.98438 7.8125C5.98438 5.87397 7.56147 4.29688 9.5 4.29688C11.4385 4.29688 13.0156 5.87397 13.0156 7.8125C13.0156 9.75103 11.4386 11.3281 9.5 11.3281ZM9.5 5.85938C8.42305 5.85938 7.54688 6.73555 7.54688 7.8125C7.54688 8.88945 8.42305 9.76563 9.5 9.76563C10.577 9.76563 11.4531 8.88945 11.4531 7.8125C11.4531 6.73555 10.577 5.85938 9.5 5.85938Z" fill="#8D8D8D"/>
</svg>
