<svg width="24" height="27" viewBox="0 0 24 27" fill="none" xmlns="http://www.w3.org/2000/svg">
<path fill-rule="evenodd" clip-rule="evenodd" d="M21 7H3C2.44772 7 2 7.44772 2 8V17C2 17.5523 2.44772 18 3 18H21C21.5523 18 22 17.5523 22 17V8C22 7.44772 21.5523 7 21 7ZM3 5C1.34315 5 0 6.34315 0 8V17C0 18.6569 1.34315 20 3 20H21C22.6569 20 24 18.6569 24 17V8C24 6.34315 22.6569 5 21 5H3Z" fill="#A5A7A9"/>
<rect x="4" y="13" width="16" height="7" fill="#1F2227"/>
<path fill-rule="evenodd" clip-rule="evenodd" d="M17 2H7C6.44772 2 6 2.44772 6 3V5C6 5.55228 6.44772 6 7 6H17C17.5523 6 18 5.55228 18 5V3C18 2.44772 17.5523 2 17 2ZM7 0C5.34315 0 4 1.34315 4 3V5C4 6.65685 5.34315 8 7 8H17C18.6569 8 20 6.65685 20 5V3C20 1.34315 18.6569 0 17 0H7Z" fill="#A5A7A9"/>
<rect x="3" y="7" width="18" height="7" fill="#1F2227"/>
<path fill-rule="evenodd" clip-rule="evenodd" d="M17 15H7C6.44772 15 6 15.4477 6 16V24C6 24.5523 6.44772 25 7 25H17C17.5523 25 18 24.5523 18 24V16C18 15.4477 17.5523 15 17 15ZM7 13C5.34315 13 4 14.3431 4 16V24C4 25.6569 5.34315 27 7 27H17C18.6569 27 20 25.6569 20 24V16C20 14.3431 18.6569 13 17 13H7Z" fill="#A5A7A9"/>
<rect x="16" y="17" width="2" height="8" rx="1" transform="rotate(90 16 17)" fill="#A5A7A9"/>
<rect x="16" y="21" width="2" height="8" rx="1" transform="rotate(90 16 21)" fill="#A5A7A9"/>
<rect x="20" y="9" width="2" height="3" rx="1" transform="rotate(90 20 9)" fill="#A5A7A9"/>
</svg>
