<svg width="24" height="25" viewBox="0 0 24 25" fill="none" xmlns="http://www.w3.org/2000/svg">
<path d="M1 3.5C1 2.39543 1.89543 1.5 3 1.5H16C19.866 1.5 23 4.63401 23 8.5V21.5C23 22.6046 22.1046 23.5 21 23.5H3C1.89543 23.5 1 22.6046 1 21.5V3.5Z" stroke="#A5A7A9" stroke-width="2"/>
<rect x="4" y="13.5" width="2" height="10" rx="1" fill="#A5A7A9"/>
<rect x="18" y="13.5" width="2" height="10" rx="1" fill="#A5A7A9"/>
<rect x="4" y="15.5" width="2" height="16" rx="1" transform="rotate(-90 4 15.5)" fill="#A5A7A9"/>
<rect x="6" y="9.5" width="2" height="12" rx="1" transform="rotate(-90 6 9.5)" fill="#A5A7A9"/>
<rect x="8" y="9.5" width="2" height="8" rx="1" transform="rotate(180 8 9.5)" fill="#A5A7A9"/>
<rect x="18" y="9.5" width="2" height="8" rx="1" transform="rotate(180 18 9.5)" fill="#A5A7A9"/>
<rect x="15" y="6.5" width="2" height="3" rx="1" transform="rotate(-180 15 6.5)" fill="#A5A7A9"/>
</svg>
