<svg width="20" height="20" viewBox="0 0 20 20" fill="none" xmlns="http://www.w3.org/2000/svg">
<path d="M19.7556 18.5783L14.0682 12.8908C15.1698 11.53 15.8331 9.80087 15.8331 7.91757C15.8331 3.55262 12.2815 0.000976562 7.91655 0.000976562C3.5516 0.000976562 0 3.55258 0 7.91753C0 12.2825 3.55164 15.8341 7.91659 15.8341C9.79989 15.8341 11.5291 15.1708 12.8899 14.0691L18.5773 19.7566C18.7398 19.9191 18.9531 20.0008 19.1665 20.0008C19.3798 20.0008 19.5931 19.9191 19.7556 19.7566C20.0815 19.4308 20.0815 18.9041 19.7556 18.5783ZM7.91659 14.1675C4.46995 14.1675 1.66666 11.3642 1.66666 7.91753C1.66666 4.47089 4.46995 1.6676 7.91659 1.6676C11.3632 1.6676 14.1665 4.47089 14.1665 7.91753C14.1665 11.3642 11.3632 14.1675 7.91659 14.1675Z" fill="white"/>
</svg>
