<svg width="137" height="127" viewBox="0 0 137 127" fill="none" xmlns="http://www.w3.org/2000/svg">
<g filter="url(#filter0_d)">
<path d="M63.2445 116.488C33.8876 116.488 10 92.6014 10 63.2445C10 33.8876 33.8876 10 63.2445 10C73.4529 10 83.3847 12.9088 91.9668 18.4172C93.6516 19.502 94.1453 21.7479 93.0605 23.4372C91.9721 25.1265 89.7306 25.6148 88.0414 24.5309C80.6354 19.7723 72.0587 17.2606 63.2445 17.2606C37.8901 17.2606 17.2606 37.8901 17.2606 63.2445C17.2606 88.5979 37.8901 109.227 63.2445 109.227C88.5979 109.227 109.227 88.5979 109.227 63.2445C109.227 61.7289 109.155 60.2284 109.015 58.7527C108.822 56.7532 110.283 54.9815 112.277 54.7883C114.281 54.6039 116.048 56.0566 116.242 58.0507C116.406 59.7595 116.488 61.4922 116.488 63.2445C116.488 92.6014 92.6014 116.488 63.2445 116.488Z" fill="#9E6CFD"/>
<path d="M69.2969 75.3453C68.3681 75.3453 67.4384 74.9917 66.732 74.2808L44.9503 52.4991C43.5322 51.0802 43.5322 48.7811 44.9503 47.363C46.3684 45.945 48.6674 45.945 50.0855 47.363L69.3023 66.5798L119.976 15.9056C121.395 14.4875 123.694 14.4875 125.112 15.9056C126.53 17.3237 126.53 19.6227 125.112 21.0408L71.8672 74.2853C71.1555 74.9917 70.2267 75.3453 69.2969 75.3453Z" fill="#9E6CFD"/>
</g>
<defs>
<filter id="filter0_d" x="0" y="0" width="136.175" height="126.488" filterUnits="userSpaceOnUse" color-interpolation-filters="sRGB">
<feFlood flood-opacity="0" result="BackgroundImageFix"/>
<feColorMatrix in="SourceAlpha" type="matrix" values="0 0 0 0 0 0 0 0 0 0 0 0 0 0 0 0 0 0 127 0"/>
<feOffset/>
<feGaussianBlur stdDeviation="5"/>
<feColorMatrix type="matrix" values="0 0 0 0 0 0 0 0 0 0 0 0 0 0 0 0 0 0 0.2 0"/>
<feBlend mode="normal" in2="BackgroundImageFix" result="effect1_dropShadow"/>
<feBlend mode="normal" in="SourceGraphic" in2="effect1_dropShadow" result="shape"/>
</filter>
</defs>
</svg>
