<svg width="30" height="27" fill="none" xmlns="http://www.w3.org/2000/svg"><path d="M15.877.95h0H3.404h0A2.798 2.798 0 00.607 3.747v19.506a2.798 2.798 0 002.797 2.797h12.473a2.798 2.798 0 002.797-2.797V3.747A2.798 2.798 0 0015.877.95zm1.598 22.303a1.603 1.603 0 01-1.598 1.598H3.404a1.603 1.603 0 01-1.598-1.598V3.747A1.603 1.603 0 013.405 2.15h12.472a1.603 1.603 0 011.598 1.598v19.506z" fill="#A5A7A9" stroke="#A5A7A9" stroke-width=".1"/><path d="M11.042 10.016h0H8.24h0a.601.601 0 00-.6.6v2.472h0c.001.33.269.598.6.6h2.802a.604.604 0 00.6-.6v0-2.473h0a.601.601 0 00-.6-.6zm-.6 2.472H8.84v-1.273h1.603v1.273zm-4.345-2.472h0-2.802 0a.601.601 0 00-.6.6v2.472h0c.001.33.269.598.6.6h2.802a.604.604 0 00.6-.6v0-2.473h0a.601.601 0 00-.6-.6zm-.6 2.472H3.894v-1.273h1.603v1.273zm10.49-2.472h0-2.802 0a.601.601 0 00-.6.6v2.472h0c.001.33.269.598.6.6h2.802a.604.604 0 00.6-.6v0-2.473h0a.601.601 0 00-.6-.6zm-.6 2.472h-1.603v-1.273h1.603v1.273zm-4.345 2.473h0H8.24h0a.601.601 0 00-.6.6v2.472h0c.001.33.269.599.6.6h2.802a.604.604 0 00.6-.6v0-2.472h0a.601.601 0 00-.6-.6zm-.6 2.473H8.84V16.16h1.603v1.274zm-4.345-2.473h0-2.802 0a.601.601 0 00-.6.6v2.472h0c.001.33.269.599.6.6h2.802a.604.604 0 00.6-.6v0-2.472h0a.601.601 0 00-.6-.6zm-.6 2.473H3.894V16.16h1.603v1.274zm10.49-2.473h0-2.802 0a.601.601 0 00-.6.6v2.472h0c.001.33.269.599.6.6h2.802a.604.604 0 00.6-.6v0-2.472h0a.601.601 0 00-.6-.6zm-.6 2.473h-1.603V16.16h1.603v1.274zm-4.345 2.472h0H8.24h0a.601.601 0 00-.6.6v2.472h0c.001.33.269.598.6.6h2.802a.601.601 0 00.6-.6v0-2.473h0a.601.601 0 00-.6-.599zm-.6 2.473H8.84v-1.274h1.603v1.274zm-4.345-2.473h0-2.802 0a.601.601 0 00-.6.6v2.472h0c.001.33.269.598.6.6h2.802a.601.601 0 00.6-.6v0-2.473h0a.601.601 0 00-.6-.599zm-.6 2.473H3.894v-1.274h1.603v1.274zm10.49-2.473h0-2.802 0a.601.601 0 00-.6.6v2.472h0c.001.33.269.598.6.6h2.802a.601.601 0 00.6-.6v0-2.473h0a.601.601 0 00-.6-.599zm-.6 2.473h-1.603v-1.274h1.603v1.274zm.6-18.956h0H3.295h0a.601.601 0 00-.6.599v4.121h0c.001.33.269.598.6.6h12.692a.604.604 0 00.6-.6v0-4.121a.601.601 0 00-.6-.6zm-.6 4.12H3.894v-2.92h11.493v2.922z" fill="#A5A7A9" stroke="#A5A7A9" stroke-width=".1"/><circle cx="21" cy="14" r="8" fill="#1F2227"/><circle cx="21" cy="14" r="8" stroke="#A5A7A9" stroke-width="2"/><path d="M24.997 10.007a.525.525 0 00-.743 0m.743 0l-.106.106.106-.107s0 0 0 0zm0 0a.525.525 0 010 .742s0 0 0 0l-7.246 7.246 6.503-7.989m0 0s0 0 0 0m0 0h0m0 0l-7.246 7.246h0a.525.525 0 10.743.743l6.503-7.989zm-5.47-.152a1.936 1.936 0 00-1.934 1.934c0 1.066.867 1.933 1.933 1.933a1.936 1.936 0 001.934-1.933 1.935 1.935 0 00-1.933-1.934zm0 2.816a.884.884 0 11.883-.883.884.884 0 01-.884.883zm4.432 1.611a1.935 1.935 0 00-1.933 1.934c0 1.066.867 1.933 1.933 1.933a1.936 1.936 0 001.934-1.933 1.936 1.936 0 00-1.934-1.934zm0 2.816a.884.884 0 010-1.765.884.884 0 010 1.765z" fill="#A5A7A9" stroke="#A5A7A9" stroke-width=".3"/></svg>