<svg width="25" height="25" fill="none" xmlns="http://www.w3.org/2000/svg"><path d="M22.321 2.679h-2.678V.893a.893.893 0 00-1.786 0v1.786H7.143V.893a.893.893 0 10-1.786 0v1.786H2.68A2.678 2.678 0 000 5.357v16.964A2.68 2.68 0 002.679 25H22.32A2.68 2.68 0 0025 22.321V5.357c0-1.48-1.2-2.678-2.679-2.678zm.893 19.642c0 .494-.4.893-.893.893H2.68a.893.893 0 01-.893-.893V10.714h21.428v11.607zm0-13.392H1.786V5.357c0-.493.4-.893.893-.893h2.678V6.25a.893.893 0 101.786 0V4.464h10.714V6.25a.893.893 0 101.786 0V4.464h2.678c.494 0 .893.4.893.893V8.93z" fill="#A5A7A9"/><path d="M7.143 12.5H5.358a.893.893 0 100 1.786h1.785a.893.893 0 100-1.786zm6.249 0h-1.786a.893.893 0 100 1.786h1.786a.893.893 0 100-1.786zm6.251 0h-1.785a.893.893 0 100 1.786h1.785a.893.893 0 100-1.786zm-12.5 3.572H5.358a.893.893 0 100 1.786h1.785a.893.893 0 100-1.786zm6.249 0h-1.786a.893.893 0 100 1.786h1.786a.893.893 0 100-1.786zm6.251 0h-1.785a.893.893 0 100 1.786h1.785a.893.893 0 100-1.786zm-12.5 3.571H5.358a.893.893 0 100 1.786h1.785a.893.893 0 000-1.786zm6.249 0h-1.786a.893.893 0 100 1.786h1.786a.893.893 0 100-1.786zm6.251 0h-1.785a.893.893 0 100 1.786h1.785a.893.893 0 100-1.786z" fill="#A5A7A9"/></svg>