<svg width="32" height="28" fill="none" xmlns="http://www.w3.org/2000/svg"><rect x=".08" y="2.048" width="4.256" height="2.076" rx="1.038" fill="#A5A7A9"/><rect x="3.993" y="2" width="17.881" height="2.076" rx="1.038" transform="rotate(69.626 3.993 2)" fill="#A5A7A9"/><rect x="8.385" y="6.201" width="16.609" height="2.076" rx="1.038" fill="#A5A7A9"/><rect x="24" y="3" width="8" height="2" rx="1" fill="#A5A7A9"/><rect x="29" width="8" height="2" rx="1" transform="rotate(90 29 0)" fill="#A5A7A9"/><rect x="21.049" y="19.124" width="13.087" height="2.076" rx="1.038" transform="rotate(-80.929 21.05 19.124)" fill="#A5A7A9"/><rect x="7.347" y="17.619" width="15.882" height="2.076" rx="1.038" fill="#A5A7A9"/><rect x="6.309" y="21.772" width="9.343" height="2.076" rx="1.038" fill="#A5A7A9"/><path d="M8.385 18.657c-1.557 0-2.595.28-2.595 2.077 0 2.076 1.557 2.076 2.076 2.076" stroke="#A5A7A9" stroke-width="2"/><circle cx="9.423" cy="24.886" r="2.114" stroke="#A5A7A9" stroke-width="2"/><circle cx="20.841" cy="24.886" r="2.114" stroke="#A5A7A9" stroke-width="2"/></svg>