<svg width="32" height="21" fill="none" xmlns="http://www.w3.org/2000/svg"><rect x="2.066" y="4.131" width="10.329" height="2.066" rx="1.033" fill="#A5A7A9"/><rect y="7.746" width="10.329" height="2.066" rx="1.033" fill="#A5A7A9"/><rect x="2.066" y="11.361" width="7.23" height="2.066" rx="1.033" fill="#A5A7A9"/><rect x="3.099" width="18.591" height="2.066" rx="1.033" fill="#A5A7A9"/><rect x="27.346" y="10.094" width="8.323" height="2.144" rx="1.072" transform="rotate(-116.966 27.346 10.094)" fill="#A5A7A9"/><rect x="29.761" y="12.601" width="6.178" height="2.144" rx="1.072" transform="rotate(-128.694 29.761 12.6)" fill="#A5A7A9"/><rect x="19.624" y="8.263" width="9.296" height="2.066" rx="1.033" fill="#A5A7A9"/><rect x="21.69" width="10.329" height="2.066" rx="1.033" transform="rotate(90 21.69 0)" fill="#A5A7A9"/><rect x="25.821" y="4.131" width="5.164" height="2.066" rx="1.033" transform="rotate(-180 25.821 4.131)" fill="#A5A7A9"/><rect x="30.986" y="18.591" width="5.164" height="2.066" rx="1.033" transform="rotate(-180 30.986 18.591)" fill="#A5A7A9"/><rect x="28.92" y="18.591" width="8.263" height="2.066" rx="1.033" transform="rotate(-90 28.92 18.591)" fill="#A5A7A9"/><rect x="12.394" y="16.526" width="9.65" height="2.144" rx="1.072" fill="#A5A7A9"/><rect x="4.131" y="16.526" width="5.164" height="2.066" rx="1.033" fill="#A5A7A9"/><circle cx="10.682" cy="17.441" r="2.217" stroke="#A5A7A9" stroke-width="2"/><circle cx="23.874" cy="17.441" r="2.217" stroke="#A5A7A9" stroke-width="2"/></svg>