<svg width="40" height="24" fill="none" xmlns="http://www.w3.org/2000/svg"><path d="M10.834 20.667H7.5A.834.834 0 017.5 19h3.334a.834.834 0 010 1.667zm27.084-.001h-2.084a.834.834 0 010-1.666h1.392l1.123-5.987c-.015-3.063-2.631-5.68-5.848-5.68h-5.472L24.378 19h4.79a.834.834 0 010 1.666h-5.834a.834.834 0 01-.813-1.016l3.03-13.333a.833.833 0 01.813-.65h6.137c4.135 0 7.5 3.364 7.5 7.5l-1.265 6.82a.831.831 0 01-.818.68z" fill="#A5A7A9"/><path d="M32.5 24a4.171 4.171 0 01-4.167-4.167 4.171 4.171 0 014.167-4.166 4.171 4.171 0 014.166 4.166A4.171 4.171 0 0132.5 24zm0-6.667a2.503 2.503 0 00-2.5 2.5c0 1.379 1.121 2.5 2.5 2.5 1.378 0 2.5-1.121 2.5-2.5 0-1.378-1.122-2.5-2.5-2.5zM14.167 24A4.171 4.171 0 0110 19.833a4.171 4.171 0 014.167-4.166 4.171 4.171 0 014.166 4.166A4.171 4.171 0 0114.167 24zm0-6.667a2.503 2.503 0 00-2.5 2.5c0 1.379 1.121 2.5 2.5 2.5 1.378 0 2.5-1.121 2.5-2.5 0-1.378-1.122-2.5-2.5-2.5zM10.833 5.667H4.166a.834.834 0 010-1.667h6.667a.834.834 0 010 1.667zm.001 5H2.5A.834.834 0 012.5 9h8.334a.834.834 0 010 1.667zm-.001 5h-10a.834.834 0 010-1.667h10a.834.834 0 010 1.667z" fill="#A5A7A9"/><path d="M23.334 20.666H17.5a.834.834 0 010-1.666h5.169l3.786-16.667H7.5a.834.834 0 010-1.666h20a.834.834 0 01.814 1.016l-4.167 18.334a.834.834 0 01-.813.65z" fill="#A5A7A9"/></svg>