<svg width="34" height="42" fill="none" xmlns="http://www.w3.org/2000/svg"><path d="M33.032 9.784a.917.917 0 00-.027-.024l-.007-.013-.001-.003a.386.386 0 00-.076-.11L25.344 1.13h0l-.008-.008a.747.747 0 00-.113-.087l-.005-.004a1.184 1.184 0 01-.054-.038L25.16.991l-.058-.059h-.029a.226.226 0 00-.074-.035A1.022 1.022 0 0024.578.8H5.98C3.137.8.8 3.137.8 5.98v30.541c0 2.843 2.337 5.18 5.18 5.18h22.035c2.843 0 5.18-2.337 5.18-5.18V10.3l.002-.043a1.747 1.747 0 00.002-.116.492.492 0 00-.083-.263l-.164.113.164-.113a.587.587 0 00-.084-.093zm-7.417-.478V4.523l4.247 4.783h-4.247zm5.506 27.171c0 1.744-1.368 3.15-3.105 3.15H5.98a3.1 3.1 0 01-3.105-3.106V5.936A3.1 3.1 0 015.98 2.83h17.56v7.468c0 .544.436 1.037 1.038 1.037h6.543v25.141z" fill="#A5A7A9" stroke="#A5A7A9" stroke-width=".4"/><path d="M6.949 11.337h7.36c.544 0 1.037-.436 1.037-1.038a1.01 1.01 0 00-1.037-1.037h-7.36a1.037 1.037 0 100 2.075zm7.36 8.588h-7.36a1.037 1.037 0 100 2.075h7.36c.544 0 1.037-.435 1.037-1.037 0-.551-.486-1.038-1.037-1.038z" fill="#A5A7A9" stroke="#A5A7A9" stroke-width=".4"/><path d="M15.534 28.724v2.603h2.68v.6h-2.68v3.199h-.63v-7.002h3.94v.6h-3.31zm4.263.2v-.8h.698v.8h-.698zm.049 6.202v-5h.6v5h-.6zm2.207 0v-7.002h.6v7.002h-.6zm5.346-1.373c0 .202-.039.393-.117.572a1.442 1.442 0 01-.312.468 1.51 1.51 0 01-.469.318c-.18.075-.37.112-.571.112h-.4c-.203 0-.393-.037-.572-.112a1.51 1.51 0 01-.786-.786 1.465 1.465 0 01-.112-.572v-2.255c0-.202.037-.393.112-.572.078-.179.184-.335.317-.468.134-.134.29-.238.469-.313.179-.078.37-.117.571-.117h.4c.203 0 .393.039.572.117a1.444 1.444 0 01.781.781c.078.18.117.37.117.572v1.176H24.66v1.114a.866.866 0 00.87.869h.4a.868.868 0 00.87-.87v-.331l.6.097v.2zm-.6-2.29a.87.87 0 00-.254-.615.87.87 0 00-.615-.254h-.4a.866.866 0 00-.87.87v.742h2.14v-.743z" fill="#A5A7A9"/><path d="M5.911 15.852c0 .544.436 1.037 1.038 1.037h19.655a1.037 1.037 0 100-2.074H6.95c-.545 0-1.038.435-1.038 1.037z" fill="#A5A7A9" stroke="#A5A7A9" stroke-width=".4"/></svg>