<svg width="34" height="42" fill="none" xmlns="http://www.w3.org/2000/svg"><path d="M33.032 9.659a.917.917 0 00-.027-.025l-.007-.013-.001-.003c-.011-.022-.033-.066-.076-.11l-7.577-8.502h0l-.008-.008a.747.747 0 00-.113-.088l-.005-.004a1.17 1.17 0 01-.054-.037L25.16.865l-.058-.058h-.029a.225.225 0 00-.074-.035 1.022 1.022 0 00-.421-.097H5.98C3.137.675.8 3.012.8 5.855v30.54c0 2.844 2.337 5.18 5.18 5.18h22.035c2.843 0 5.18-2.336 5.18-5.18V10.174l.002-.042a1.747 1.747 0 00.002-.116.492.492 0 00-.083-.264l-.164.114.164-.114a.587.587 0 00-.084-.092zm-7.417-.479V4.398l4.247 4.782h-4.247zm5.506 27.172c0 1.744-1.368 3.149-3.105 3.149H5.98a3.1 3.1 0 01-3.105-3.105V5.81A3.1 3.1 0 015.98 2.705h17.56v7.469c0 .544.436 1.037 1.038 1.037h6.543v25.14z" fill="#A5A7A9" stroke="#A5A7A9" stroke-width=".4"/><path d="M6.95 11.211h7.36c.544 0 1.037-.435 1.037-1.037a1.01 1.01 0 00-1.038-1.038H6.95a1.037 1.037 0 100 2.075zm7.36 8.589H6.95a1.037 1.037 0 100 2.075h7.36c.544 0 1.037-.436 1.037-1.038 0-.55-.486-1.037-1.038-1.037z" fill="#A5A7A9" stroke="#A5A7A9" stroke-width=".4"/><path d="M17.719 35.1c-.814 0-1.444-.223-1.89-.67-.44-.453-.66-1.163-.66-2.13 0-.667.113-1.21.34-1.63.226-.42.54-.73.94-.93.406-.2.873-.3 1.4-.3a3.775 3.775 0 011.7.37l-.44 1.15a7.19 7.19 0 00-.66-.23c-.2-.06-.4-.09-.6-.09-.774 0-1.16.55-1.16 1.65 0 .547.1.95.3 1.21.206.26.493.39.86.39.313 0 .59-.04.83-.12.24-.087.473-.203.7-.35v1.27c-.227.147-.467.25-.72.31-.247.067-.56.1-.94.1zm6.906-7.7v2.11c.947.08 1.67.37 2.17.87.5.493.75 1.123.75 1.89 0 .767-.243 1.4-.73 1.9-.486.5-1.216.79-2.19.87v2.36h-1.38v-2.36c-.94-.087-1.666-.38-2.18-.88-.506-.5-.76-1.13-.76-1.89 0-.78.237-1.417.71-1.91.48-.5 1.224-.783 2.23-.85V27.4h1.38zm-1.38 3.23c-.433.06-.776.24-1.03.54-.253.3-.38.667-.38 1.1 0 .447.124.82.37 1.12.247.293.594.467 1.04.52v-3.28zm1.38.02v3.26c.447-.053.79-.227 1.03-.52.24-.3.36-.673.36-1.12 0-.433-.123-.797-.37-1.09-.246-.3-.586-.477-1.02-.53z" fill="#A5A7A9"/><path d="M5.912 15.726c0 .545.436 1.038 1.038 1.038h19.655a1.037 1.037 0 100-2.075H6.95c-.545 0-1.038.435-1.038 1.037z" fill="#A5A7A9" stroke="#A5A7A9" stroke-width=".4"/></svg>