<svg width="34" height="42" fill="none" xmlns="http://www.w3.org/2000/svg"><path d="M33.032 9.659a.917.917 0 00-.027-.025l-.007-.013-.001-.003c-.011-.022-.033-.066-.076-.11l-7.577-8.502h0l-.008-.008a.747.747 0 00-.113-.088l-.005-.004a1.17 1.17 0 01-.054-.037L25.16.865l-.058-.058h-.029a.225.225 0 00-.074-.035 1.022 1.022 0 00-.421-.097H5.98C3.137.675.8 3.012.8 5.855v30.54c0 2.844 2.337 5.18 5.18 5.18h22.035c2.843 0 5.18-2.336 5.18-5.18V10.174l.002-.042a1.747 1.747 0 00.002-.116.492.492 0 00-.083-.264l-.164.114.164-.114a.587.587 0 00-.084-.092zm-7.417-.479V4.398l4.247 4.782h-4.247zm5.506 27.172c0 1.744-1.368 3.149-3.105 3.149H5.98a3.1 3.1 0 01-3.105-3.105V5.81A3.1 3.1 0 015.98 2.705h17.56v7.469c0 .544.436 1.037 1.038 1.037h6.543v25.14z" fill="#A5A7A9" stroke="#A5A7A9" stroke-width=".4"/><path d="M6.95 11.211h7.36c.544 0 1.037-.435 1.037-1.037a1.01 1.01 0 00-1.038-1.038H6.95a1.037 1.037 0 100 2.075zm7.36 8.589H6.95a1.037 1.037 0 100 2.075h7.36c.544 0 1.037-.436 1.037-1.038 0-.55-.486-1.037-1.038-1.037z" fill="#A5A7A9" stroke="#A5A7A9" stroke-width=".4"/><path d="M13.844 29.54h1.64l-2.16 2.62 2.35 2.84h-1.69l-2.23-2.77V35h-1.49v-5.46h1.49v2.65l2.09-2.65zm7.377 2.72c0 .907-.24 1.607-.72 2.1-.474.493-1.12.74-1.94.74-.507 0-.96-.11-1.36-.33a2.348 2.348 0 01-.93-.96c-.227-.427-.34-.943-.34-1.55 0-.907.236-1.603.71-2.09.473-.487 1.123-.73 1.95-.73.513 0 .966.11 1.36.33.393.22.703.54.93.96.226.413.34.923.34 1.53zm-3.77 0c0 .54.086.95.26 1.23.18.273.47.41.87.41.393 0 .676-.137.85-.41.18-.28.27-.69.27-1.23s-.09-.943-.27-1.21c-.174-.273-.46-.41-.86-.41-.394 0-.68.137-.86.41-.174.267-.26.67-.26 1.21zm8.04-2.82c.614 0 1.11.24 1.49.72.38.473.57 1.173.57 2.1s-.196 1.633-.59 2.12c-.392.48-.896.72-1.51.72-.393 0-.706-.07-.94-.21a2.312 2.312 0 01-.57-.49h-.08c.054.28.08.547.08.8v2.2h-1.49v-7.86h1.21l.21.71h.07c.148-.22.344-.41.59-.57.248-.16.568-.24.96-.24zm-.48 1.19c-.386 0-.66.12-.82.36-.152.24-.236.607-.25 1.1v.16c0 .527.078.933.23 1.22.16.28.448.42.86.42.34 0 .59-.14.75-.42.168-.287.25-.697.25-1.23 0-1.073-.34-1.61-1.02-1.61z" fill="#A5A7A9"/><path d="M5.912 15.726c0 .545.436 1.038 1.038 1.038h19.655a1.037 1.037 0 100-2.075H6.95c-.545 0-1.038.435-1.038 1.037z" fill="#A5A7A9" stroke="#A5A7A9" stroke-width=".4"/></svg>