<svg width="25" height="25" fill="none" xmlns="http://www.w3.org/2000/svg"><path fill-rule="evenodd" clip-rule="evenodd" d="M3 2h15.076a1 1 0 011 1v8.143h2V3a3 3 0 00-3-3H3a3 3 0 00-3 3v18.086a3 3 0 003 3h12.504v-2H3a1 1 0 01-1-1V3a1 1 0 011-1z" fill="#fff"/><rect x="17.061" y="5.018" width="1.647" height="13.047" rx=".824" transform="rotate(90 17.061 5.018)" fill="#fff"/><rect x="9.69" y="12.597" width="1.647" height="5.814" rx=".824" transform="rotate(90 9.69 12.597)" fill="#fff"/><rect x="13.566" y="8.721" width="1.647" height="9.69" rx=".824" transform="rotate(90 13.566 8.721)" fill="#fff"/><path fill-rule="evenodd" clip-rule="evenodd" d="M20.155 14.534a.969.969 0 00-.969.97v2.906H16.28a.97.97 0 000 1.938h2.907v2.907a.969.969 0 001.938 0v-2.907h2.907a.969.969 0 100-1.938h-2.907v-2.907a.969.969 0 00-.969-.969z" fill="#fff"/></svg>