<svg width="34" height="42" fill="none" xmlns="http://www.w3.org/2000/svg"><path d="M33.032 9.659a.917.917 0 00-.027-.025l-.007-.013-.001-.003c-.011-.022-.033-.066-.076-.11l-7.577-8.502h0l-.008-.008a.747.747 0 00-.113-.088l-.005-.004a1.17 1.17 0 01-.054-.037L25.16.865l-.058-.058h-.029a.225.225 0 00-.074-.035 1.022 1.022 0 00-.421-.097H5.98C3.137.675.8 3.012.8 5.855v30.54c0 2.844 2.337 5.18 5.18 5.18h22.035c2.843 0 5.18-2.336 5.18-5.18V10.174l.002-.042a1.747 1.747 0 00.002-.116.492.492 0 00-.083-.264l-.164.114.164-.114a.587.587 0 00-.084-.092zm-7.417-.479V4.398l4.247 4.782h-4.247zm5.506 27.172c0 1.744-1.368 3.149-3.105 3.149H5.98a3.1 3.1 0 01-3.105-3.105V5.81A3.1 3.1 0 015.98 2.705h17.56v7.469c0 .544.436 1.037 1.038 1.037h6.543v25.14z" fill="#A5A7A9" stroke="#A5A7A9" stroke-width=".4"/><path d="M6.95 11.211h7.36c.544 0 1.037-.435 1.037-1.037a1.01 1.01 0 00-1.038-1.038H6.95a1.037 1.037 0 100 2.075zm7.36 8.589H6.95a1.037 1.037 0 100 2.075h7.36c.544 0 1.037-.436 1.037-1.038 0-.55-.486-1.037-1.038-1.037z" fill="#A5A7A9" stroke="#A5A7A9" stroke-width=".4"/><path d="M9.143 29.54h1.63l1.03 3.07c.053.147.093.3.12.46.026.153.046.317.06.49h.03c.02-.173.046-.337.08-.49.04-.16.083-.313.13-.46l1.01-3.07h1.6l-2.31 6.16c-.207.567-.51.99-.91 1.27-.394.287-.85.43-1.37.43-.167 0-.314-.01-.44-.03a3.248 3.248 0 01-.32-.05v-1.18c.073.013.16.027.26.04.106.013.216.02.33.02.313 0 .56-.097.74-.29a1.68 1.68 0 00.41-.68l.09-.27-2.17-5.42zm11.433 0V35h-1.49v-4.34h-1.98V35h-1.49v-5.46h4.96zm6.473 0v4.37h.8v3.05h-1.34V35h-3.67v1.96H21.5v-3.05h.46c.24-.367.444-.783.61-1.25.167-.473.3-.977.4-1.51.1-.533.174-1.07.22-1.61h3.86zm-1.49 1.12h-1.12a14.74 14.74 0 01-.33 1.73 6.853 6.853 0 01-.59 1.52h2.04v-3.25z" fill="#A5A7A9"/><path d="M5.912 15.726c0 .545.436 1.038 1.038 1.038h19.655a1.037 1.037 0 100-2.075H6.95c-.545 0-1.038.435-1.038 1.037z" fill="#A5A7A9" stroke="#A5A7A9" stroke-width=".4"/></svg>