<svg width="34" height="42" fill="none" xmlns="http://www.w3.org/2000/svg"><path d="M33.032 9.659a.917.917 0 00-.027-.025l-.007-.013-.001-.003c-.011-.022-.033-.066-.076-.11l-7.577-8.502h0l-.008-.008a.747.747 0 00-.113-.088l-.005-.004a1.17 1.17 0 01-.054-.037L25.16.865l-.058-.058h-.029a.225.225 0 00-.074-.035 1.022 1.022 0 00-.421-.097H5.98C3.137.675.8 3.012.8 5.855v30.54c0 2.844 2.337 5.18 5.18 5.18h22.035c2.843 0 5.18-2.336 5.18-5.18V10.174l.002-.042a1.747 1.747 0 00.002-.116.492.492 0 00-.083-.264l-.164.114.164-.114a.587.587 0 00-.084-.092zm-7.417-.479V4.398l4.247 4.782h-4.247zm5.506 27.172c0 1.744-1.368 3.149-3.105 3.149H5.98a3.1 3.1 0 01-3.105-3.105V5.81A3.1 3.1 0 015.98 2.705h17.56v7.469c0 .544.436 1.037 1.038 1.037h6.543v25.14z" fill="#A5A7A9" stroke="#A5A7A9" stroke-width=".4"/><path d="M6.95 11.211h7.36c.544 0 1.037-.435 1.037-1.037a1.01 1.01 0 00-1.038-1.038H6.95a1.037 1.037 0 100 2.075zm7.36 8.589H6.95a1.037 1.037 0 100 2.075h7.36c.544 0 1.037-.436 1.037-1.038 0-.55-.486-1.037-1.038-1.037z" fill="#A5A7A9" stroke="#A5A7A9" stroke-width=".4"/><path d="M19.3 35.1c-.813 0-1.443-.223-1.89-.67-.44-.453-.66-1.163-.66-2.13 0-.667.114-1.21.34-1.63.227-.42.54-.73.94-.93.407-.2.874-.3 1.4-.3a3.775 3.775 0 011.7.37l-.44 1.15a7.19 7.19 0 00-.66-.23c-.2-.06-.4-.09-.6-.09-.773 0-1.16.55-1.16 1.65 0 .547.1.95.3 1.21.207.26.494.39.86.39.314 0 .59-.04.83-.12.24-.087.474-.203.7-.35v1.27c-.226.147-.466.25-.72.31-.246.067-.56.1-.94.1zm4.227-5.56v2c0 .473.22.71.66.71.287 0 .554-.03.8-.09a5.44 5.44 0 00.74-.26v-2.36h1.49V35h-1.49v-2.17c-.233.127-.5.243-.8.35-.3.1-.64.15-1.02.15-.566 0-1.02-.147-1.36-.44-.34-.293-.51-.733-.51-1.32v-2.03h1.49z" fill="#A5A7A9"/><path d="M5.912 15.726c0 .545.436 1.038 1.038 1.038h19.655a1.037 1.037 0 100-2.075H6.95c-.545 0-1.038.435-1.038 1.037z" fill="#A5A7A9" stroke="#A5A7A9" stroke-width=".4"/></svg>