<svg width="18" height="22" fill="none" xmlns="http://www.w3.org/2000/svg"><path d="M17.084 5.318h-.001a.305.305 0 00-.049-.069L13.247.999h0L13.239.99a.364.364 0 00-.074-.058h0a.539.539 0 01-.018-.012s0 0 0 0l-.055-.055h-.03a.217.217 0 00-.033-.013.607.607 0 00-.24-.053H3.49A2.702 2.702 0 00.8 3.49v15.27a2.702 2.702 0 002.69 2.69h11.018a2.702 2.702 0 002.69-2.69V5.65a.264.264 0 010-.026.586.586 0 00.002-.058.346.346 0 00-.116-.248zm-3.676-.265V3.025l1.8 2.028h-1.8zm2.552 13.686c0 .818-.64 1.474-1.452 1.474H3.49a1.45 1.45 0 01-1.453-1.452V3.468A1.45 1.45 0 013.49 2.015h8.68V5.65c0 .324.26.62.619.62h3.171v12.47z" fill="#A5A7A9" stroke="#A5A7A9" stroke-width=".4"/><path d="M3.975 6.268h3.68a.618.618 0 00.618-.618.605.605 0 00-.618-.619h-3.68a.618.618 0 100 1.237zm3.68 4.095h-3.68a.618.618 0 100 1.237h3.68a.618.618 0 00.618-.618.633.633 0 00-.618-.619zM3.356 8.426c0 .323.26.618.619.618h9.828a.618.618 0 100-1.237H3.975a.618.618 0 00-.619.619z" fill="#A5A7A9" stroke="#A5A7A9" stroke-width=".4"/></svg>