<svg width="26" height="30" fill="none" xmlns="http://www.w3.org/2000/svg"><path fill-rule="evenodd" clip-rule="evenodd" d="M9 2h14a1 1 0 011 1v20a1 1 0 01-1 1h-1v2h1a3 3 0 003-3V3a3 3 0 00-3-3H9a3 3 0 00-3 3h2a1 1 0 011-1z" fill="#A5A7A9"/><path d="M20.037 10.145l-.006-.005a.329.329 0 00-.055-.08l-4.49-5.036h0l-.007-.009a.402.402 0 00-.048-.04l-.034-.023h-.001a.597.597 0 01-.022-.016l-.002-.002-.056-.056h-.029a.225.225 0 00-.043-.017.684.684 0 00-.272-.061H3.95A3.165 3.165 0 00.8 7.951v18.098A3.165 3.165 0 003.951 29.2h13.058a3.165 3.165 0 003.15-3.151V10.51l.002-.02v-.012a.465.465 0 000-.065.373.373 0 00-.125-.268zm-4.37-.305V7.302l2.255 2.538h-2.254zm3.1 16.183c0 .99-.775 1.785-1.758 1.785H3.95a1.756 1.756 0 01-1.759-1.759V7.925c0-.985.797-1.759 1.759-1.759h10.325v4.344c0 .365.291.697.696.697h3.795v14.816z" fill="#A5A7A9" stroke="#A5A7A9" stroke-width=".4"/><path d="M4.526 11.207h4.36a.696.696 0 00.697-.697.68.68 0 00-.696-.696H4.526a.696.696 0 100 1.393zm4.361 8.587H4.526a.696.696 0 100 1.392h4.36a.696.696 0 00.697-.696.713.713 0 00-.696-.696zM3.83 13.8c0 .366.291.697.696.697h11.647a.696.696 0 100-1.392H4.526a.696.696 0 00-.697.696zm12.343 2.76H4.526a.696.696 0 100 1.392h11.647a.696.696 0 00.696-.696.68.68 0 00-.696-.697z" fill="#A5A7A9" stroke="#A5A7A9" stroke-width=".4"/></svg>