<svg width="30" height="29" fill="none" xmlns="http://www.w3.org/2000/svg"><path d="M23.393 26.103h0c1.713-1.447 3.192-2.697 4.22-3.929m-4.22 3.93l-2.467-11.238a5.37 5.37 0 01.954-.952A4.3 4.3 0 0124.55 13a4.59 4.59 0 013.401 1.468c.87.935 1.349 2.214 1.349 3.599 0 1.426-.536 2.731-1.686 4.107m-4.22 3.93a196.09 196.09 0 00-1.937 1.651 1.003 1.003 0 01-1.314 0m3.25-1.652l-3.25 1.652m7.47-5.58l.154.128s0 0 0 0m-.153-.129l.153.129m0 0c-1.04 1.244-2.53 2.504-4.232 3.943l-.012.01h0c-.586.495-1.248 1.054-1.935 1.65l-.13-.15.13.15a1.203 1.203 0 01-1.576 0c-.686-.595-1.347-1.153-1.931-1.647l-.002-.001h0l-.002-.002-.001-.001-.01-.008c-1.703-1.44-3.193-2.7-4.234-3.944h0C12.66 20.9 12.1 19.55 12.1 18.067c0-1.431.495-2.76 1.402-3.735h0a4.789 4.789 0 013.547-1.532c1.026 0 1.967.323 2.793.956h0c.349.268.67.585.958.947.289-.362.609-.68.958-.947a4.499 4.499 0 012.793-.956c1.367 0 2.628.544 3.547 1.532h0c.907.976 1.402 2.304 1.402 3.735 0 1.484-.56 2.833-1.733 4.236zm-12.861-.887h0c.96 1.15 2.393 2.361 4.075 3.783 0 0 0 0 0 0l.002.001.002.002c.549.464 1.168.987 1.814 1.546.649-.56 1.269-1.084 1.82-1.549 1.682-1.422 3.114-2.634 4.075-3.783.987-1.18 1.41-2.21 1.41-3.35 0-1.09-.37-2.08-1.031-2.792a3.4 3.4 0 00-2.522-1.086 3.12 3.12 0 00-1.94.666c-.52.398-.884.905-1.1 1.264a.825.825 0 01-.711.4.825.825 0 01-.712-.4h0a4.565 4.565 0 00-1.099-1.264 3.12 3.12 0 00-1.94-.666 3.4 3.4 0 00-2.522 1.085l.379 6.143zm0 0c-.987-1.18-1.41-2.21-1.41-3.35 0-1.09.37-2.08 1.03-2.792l.38 6.142zm5.237 6.34a194.98 194.98 0 00-1.933-1.65l1.933 1.65z" fill="#A5A7A9" stroke="#A5A7A9" stroke-width=".4"/><path fill-rule="evenodd" clip-rule="evenodd" d="M3 2h15.75a1 1 0 011 1v12h2V3a3 3 0 00-3-3H3a3 3 0 00-3 3v18.857a3 3 0 003 3h13.485A1 1 0 0116 24v-1.143H3a1 1 0 01-1-1V3a1 1 0 011-1z" fill="#A5A7A9"/><rect x="17.607" y="5.179" width="1.7" height="13.464" rx=".85" transform="rotate(90 17.607 5.179)" fill="#A5A7A9"/><rect x="10" y="13" width="1.7" height="6" rx=".85" transform="rotate(90 10 13)" fill="#A5A7A9"/><rect x="14" y="9" width="1.7" height="10" rx=".85" transform="rotate(90 14 9)" fill="#A5A7A9"/></svg>