<svg width="30" height="29" fill="none" xmlns="http://www.w3.org/2000/svg"><path fill-rule="evenodd" clip-rule="evenodd" d="M3 2h15.75a1 1 0 011 1v12h2V3a3 3 0 00-3-3H3a3 3 0 00-3 3v18.857a3 3 0 003 3h13.485A1 1 0 0116 24v-1.143H3a1 1 0 01-1-1V3a1 1 0 011-1z" fill="#A5A7A9"/><path d="M27.614 22.174c-1.029 1.232-2.508 2.482-4.22 3.93h0c-.585.494-1.249 1.054-1.937 1.651m6.157-5.58l.153.128m-.153-.129l.153.129s0 0 0 0m-.153-.129c1.15-1.376 1.686-2.681 1.686-4.107 0-1.385-.479-2.664-1.349-3.6a4.59 4.59 0 00-3.4-1.467c-.981 0-1.88.308-2.671.914l-1.08.789m6.967 7.6c-1.04 1.245-2.53 2.504-4.232 3.943l-.012.01h0c-.585.495-1.248 1.054-1.935 1.65l-.131-.15m6.31-5.453C28.94 20.9 29.5 19.55 29.5 18.067c0-1.431-.495-2.76-1.402-3.735h0a4.789 4.789 0 00-3.547-1.532 4.499 4.499 0 00-2.793.956c-.349.268-.67.585-.958.947m.657 13.052l.131.151m-.131-.15a1.002 1.002 0 01-1.314 0 196.135 196.135 0 00-1.933-1.65l-.003-.002c-1.713-1.448-3.192-2.698-4.22-3.93-1.151-1.376-1.687-2.681-1.687-4.107 0-1.385.479-2.664 1.349-3.6a4.589 4.589 0 013.4-1.467c.981 0 1.88.308 2.671.914.348.267.667.586.954.952l.914 13.04m0 0a1.203 1.203 0 01-1.576 0c-.686-.595-1.347-1.153-1.931-1.647l-.002-.001h0l-.001-.002-.002-.001-.01-.008c-1.703-1.44-3.193-2.7-4.233-3.944h0C12.66 20.9 12.1 19.55 12.1 18.067c0-1.431.495-2.76 1.402-3.735h0A4.789 4.789 0 0117.05 12.8a4.5 4.5 0 012.793.956h0c.349.268.67.585.958.947m.788 13.203L20.8 14.703m-5.894 6.713h0c.96 1.15 2.393 2.361 4.075 3.782v.001l.002.001.002.002c.55.464 1.168.987 1.814 1.546.65-.56 1.27-1.084 1.82-1.549m-7.713-3.783l-.379-6.143a3.4 3.4 0 012.522-1.085c.71 0 1.362.223 1.94.666.519.398.884.905 1.1 1.263h0a.825.825 0 00.711.402c.293 0 .56-.15.711-.401.216-.36.581-.866 1.1-1.264a3.12 3.12 0 011.94-.666 3.4 3.4 0 012.522 1.085c.661.712 1.031 1.702 1.031 2.794 0 1.14-.423 2.168-1.41 3.35-.96 1.148-2.393 2.36-4.075 3.782m-7.713-3.783c-.987-1.18-1.41-2.21-1.41-3.35 0-1.09.37-2.08 1.031-2.792l.38 6.142zM22.62 25.2l.129.153-.13-.153z" fill="#A5A7A9" stroke="#A5A7A9" stroke-width=".4"/><rect x="17.607" y="5.179" width="1.7" height="13.464" rx=".85" transform="rotate(90 17.607 5.179)" fill="#A5A7A9"/><rect x="10" y="13" width="1.7" height="6" rx=".85" transform="rotate(90 10 13)" fill="#A5A7A9"/><rect x="14" y="9" width="1.7" height="10" rx=".85" transform="rotate(90 14 9)" fill="#A5A7A9"/></svg>