<svg width="19" height="15" fill="none" xmlns="http://www.w3.org/2000/svg"><path d="M3.71 3.924a.464.464 0 11.928 0v6.493a.464.464 0 11-.928 0V3.924zm-3.71 0a.464.464 0 11.928 0v6.493a.464.464 0 11-.928 0V3.924z" fill="#fff"/><path d="M.464 4.388a.464.464 0 010-.927h3.71a.464.464 0 010 .927H.464zm0 6.492a.464.464 0 010-.927h3.71a.464.464 0 010 .928H.464z" fill="#fff"/><path d="M4.206 10.927a.494.494 0 11.373-.915l8.023 3.273a.494.494 0 01-.373.915l-8.023-3.273zM4.167 3.46a.494.494 0 10.373.914l8.024-3.273a.494.494 0 00-.373-.914L4.167 3.46z" fill="#fff"/><path d="M12.892.678a.464.464 0 10-.927 0v12.985a.464.464 0 10.927 0V.678z" fill="#fff"/><path fill-rule="evenodd" clip-rule="evenodd" d="M16.279 4.592a.464.464 0 01.833-.408l-.417.204.417-.204v.002l.003.006.009.018a6.28 6.28 0 01.14.31c.091.205.211.493.331.826.236.652.492 1.527.492 2.289 0 .761-.256 1.636-.492 2.288a13.56 13.56 0 01-.471 1.137l-.009.018-.002.005-.001.001-.417-.203.417.203a.464.464 0 01-.833-.407m0 0l.002-.004.006-.014a5.992 5.992 0 00.128-.281c.084-.191.196-.46.308-.77.228-.632.436-1.38.436-1.973 0-.593-.208-1.341-.436-1.974a12.672 12.672 0 00-.436-1.05l-.006-.015-.002-.004" fill="#fff"/><path fill-rule="evenodd" clip-rule="evenodd" d="M14.458 5.578l.001.002.006.01a4.127 4.127 0 01.125.195c.082.134.191.321.3.537.228.451.414.946.414 1.313 0 .366-.186.861-.414 1.313a7.658 7.658 0 01-.425.732l-.006.01-.001.001a.464.464 0 00.765.525l-.383-.263.383.263.001-.002.003-.004.009-.014a12.444 12.444 0 00.144-.226c.092-.15.215-.36.338-.604.236-.467.514-1.13.514-1.731 0-.601-.278-1.265-.514-1.732a8.559 8.559 0 00-.45-.78l-.032-.05-.01-.014-.002-.004s-.001-.002-.384.26l.383-.26a.465.465 0 00-.765.523zm-8.952 6.876c-.532.368-1.352.73-2.26.395-.79-.291-1.251-.9-1.508-1.398a3.865 3.865 0 01-.334-.925l-.004-.019-.001-.006v-.003l.456-.08.457-.082c0-.001 0 0 0 0v.007l.009.036c.008.034.02.086.04.15.039.13.103.307.2.496.198.383.513.772 1.007.954.491.181.982.008 1.411-.288a3.454 3.454 0 00.675-.62l.007-.01.368.284.367.283-.001.001-.001.002-.005.006-.014.017a4.117 4.117 0 01-.227.253c-.15.156-.37.36-.642.547z" fill="#fff"/></svg>