<svg width="31" height="32" fill="none" xmlns="http://www.w3.org/2000/svg"><path fill-rule="evenodd" clip-rule="evenodd" d="M3 4.5h15.75a1 1 0 011 1v8.517a8.86 8.86 0 012-.109V5.5a3 3 0 00-3-3H3a3 3 0 00-3 3v18.857a3 3 0 003 3h10.762c-.387-.62-.7-1.29-.924-2H3a1 1 0 01-1-1V5.5a1 1 0 011-1z" fill="#A5A7A9"/><circle cx="21.232" cy="22.696" r="7.804" stroke="#A5A7A9" stroke-width="2"/><rect x="19.679" y="18.036" width="1.7" height="6.214" rx=".85" fill="#A5A7A9"/><rect x="24.857" y="22.6" width="1.7" height="5.179" rx=".85" transform="rotate(90 24.857 22.6)" fill="#A5A7A9"/><rect x="6" y="8" width="2" height="2" rx="1" transform="rotate(90 6 8)" fill="#A5A7A9"/><rect x="6" y="12" width="2" height="2" rx="1" transform="rotate(90 6 12)" fill="#A5A7A9"/><rect x="6" y="16" width="2" height="2" rx="1" transform="rotate(90 6 16)" fill="#A5A7A9"/><rect x="6" y="20" width="2" height="2" rx="1" transform="rotate(90 6 20)" fill="#A5A7A9"/><rect x="10" y="8" width="2" height="2" rx="1" transform="rotate(90 10 8)" fill="#A5A7A9"/><rect x="10" y="12" width="2" height="2" rx="1" transform="rotate(90 10 12)" fill="#A5A7A9"/><rect x="10" y="16" width="2" height="2" rx="1" transform="rotate(90 10 16)" fill="#A5A7A9"/><rect x="14" y="16" width="2" height="2" rx="1" transform="rotate(90 14 16)" fill="#A5A7A9"/><rect x="10" y="20" width="2" height="2" rx="1" transform="rotate(90 10 20)" fill="#A5A7A9"/><rect x="14" y="8" width="2" height="2" rx="1" transform="rotate(90 14 8)" fill="#A5A7A9"/><rect x="14" y="12" width="2" height="2" rx="1" transform="rotate(90 14 12)" fill="#A5A7A9"/><rect x="18" y="8" width="2" height="2" rx="1" transform="rotate(90 18 8)" fill="#A5A7A9"/><rect x="18" y="12" width="2" height="2" rx="1" transform="rotate(90 18 12)" fill="#A5A7A9"/><rect x="5" y=".5" width="2" height="6" rx="1" fill="#A5A7A9"/><rect x="10" y=".5" width="2" height="6" rx="1" fill="#A5A7A9"/><rect x="15" y=".5" width="2" height="6" rx="1" fill="#A5A7A9"/></svg>