<svg width="41" height="20" fill="none" xmlns="http://www.w3.org/2000/svg"><path fill-rule="evenodd" clip-rule="evenodd" d="M37.465 2H18.579l8.064 7.102L37.465 2zM16.739 3.036L14.713 15.91a1 1 0 00.988 1.156h19.926a1 1 0 00.988-.845l1.978-12.576-11.33 7.436c-.047.03-.094.056-.142.078a.998.998 0 01-1.235-.067l-9.107-8.02a.957.957 0 01-.04-.037zm-1.946-.502A3 3 0 0117.757 0h19.926a3 3 0 012.963 3.466L38.59 16.533a3 3 0 01-2.963 2.534H15.7a3 3 0 01-2.964-3.467l2.056-13.066z" fill="#A5A7A9"/><rect x="3.7" y="4" width="8" height="2" rx="1" fill="#A5A7A9"/><rect y="8" width="11" height="2" rx="1" fill="#A5A7A9"/><rect x="5.3" y="12" width="5" height="2" rx="1" fill="#A5A7A9"/></svg>