<svg width="26" height="25" fill="none" xmlns="http://www.w3.org/2000/svg"><path fill-rule="evenodd" clip-rule="evenodd" d="M3 2h15.75a1 1 0 011 1v8.5h2V3a3 3 0 00-3-3H3a3 3 0 00-3 3v18.857a3 3 0 003 3h13v-2H3a1 1 0 01-1-1V3a1 1 0 011-1z" fill="#A5A7A9"/><rect x="17.607" y="5.179" width="1.7" height="13.464" rx=".85" transform="rotate(90 17.607 5.179)" fill="#A5A7A9"/><rect x="10" y="13" width="1.7" height="6" rx=".85" transform="rotate(90 10 13)" fill="#A5A7A9"/><rect x="14" y="9" width="1.7" height="10" rx=".85" transform="rotate(90 14 9)" fill="#A5A7A9"/><path fill-rule="evenodd" clip-rule="evenodd" d="M20.8 15a1 1 0 00-1 1v3h-3a1 1 0 000 2h3v3a1 1 0 002 0v-3h3a1 1 0 100-2h-3v-3a1 1 0 00-1-1z" fill="#A5A7A9"/></svg>