<svg width="22" height="22" fill="none" xmlns="http://www.w3.org/2000/svg"><mask id="a" maskUnits="userSpaceOnUse" x="0" y="0" width="22" height="22" fill="#000"><path fill="#fff" d="M0 0h22v22H0z"/><path d="M20.477 16.43l-4.049-2.7a1.182 1.182 0 00-1.582.257l-1.18 1.516a.504.504 0 01-.646.136l-.224-.124c-.743-.405-1.669-.91-3.533-2.775-1.864-1.864-2.37-2.79-2.775-3.533l-.123-.224a.505.505 0 01.133-.649l1.516-1.179c.484-.38.596-1.068.257-1.582l-2.7-4.048a1.175 1.175 0 00-1.584-.357L2.294 2.185c-.532.313-.923.82-1.09 1.413-.609 2.221-.15 6.055 5.497 11.703 4.492 4.491 7.836 5.7 10.134 5.7a5.907 5.907 0 001.567-.206 2.385 2.385 0 001.413-1.089l1.018-1.691a1.176 1.176 0 00-.356-1.586zm-.218 1.243l-1.016 1.693a1.723 1.723 0 01-1.016.788c-2.051.563-5.633.096-11.055-5.325C1.751 9.408 1.285 5.825 1.848 3.775c.121-.429.404-.794.789-1.018L4.33 1.74a.51.51 0 01.687.155l1.467 2.202 1.23 1.846a.513.513 0 01-.11.686L6.087 7.81c-.461.352-.593.99-.31 1.497l.121.218c.426.781.956 1.753 2.89 3.687 1.933 1.933 2.904 2.463 3.685 2.888l.22.121a1.167 1.167 0 001.496-.309l1.18-1.515a.513.513 0 01.686-.112l4.048 2.7a.51.51 0 01.155.688z"/></mask><path d="M20.477 16.43l-4.049-2.7a1.182 1.182 0 00-1.582.257l-1.18 1.516a.504.504 0 01-.646.136l-.224-.124c-.743-.405-1.669-.91-3.533-2.775-1.864-1.864-2.37-2.79-2.775-3.533l-.123-.224a.505.505 0 01.133-.649l1.516-1.179c.484-.38.596-1.068.257-1.582l-2.7-4.048a1.175 1.175 0 00-1.584-.357L2.294 2.185c-.532.313-.923.82-1.09 1.413-.609 2.221-.15 6.055 5.497 11.703 4.492 4.491 7.836 5.7 10.134 5.7a5.907 5.907 0 001.567-.206 2.385 2.385 0 001.413-1.089l1.018-1.691a1.176 1.176 0 00-.356-1.586zm-.218 1.243l-1.016 1.693a1.723 1.723 0 01-1.016.788c-2.051.563-5.633.096-11.055-5.325C1.751 9.408 1.285 5.825 1.848 3.775c.121-.429.404-.794.789-1.018L4.33 1.74a.51.51 0 01.687.155l1.467 2.202 1.23 1.846a.513.513 0 01-.11.686L6.087 7.81c-.461.352-.593.99-.31 1.497l.121.218c.426.781.956 1.753 2.89 3.687 1.933 1.933 2.904 2.463 3.685 2.888l.22.121a1.167 1.167 0 001.496-.309l1.18-1.515a.513.513 0 01.686-.112l4.048 2.7a.51.51 0 01.155.688z" fill="#fff"/><path d="M20.477 16.43l-.278.415.278-.416zm-4.049-2.7l.278-.416-.002-.001-.276.417zm-1.582.257l-.394-.309v.002l.394.307zm-1.18 1.516l-.394-.307-.004.005.399.302zm-.646.136l.243-.437-.001-.001-.242.438zm-.224-.124l.242-.438h-.002l-.24.438zM6.488 9.207l.439-.24-.439.24zm-.123-.224l.438-.24-.002-.005-.436.245zm.133-.649l.304.398.003-.003-.307-.395zm1.516-1.179l.307.395-.307-.394zm.257-1.582l.417-.275-.001-.002-.416.277zm-2.7-4.048l-.416.277.416-.277zm-1.584-.357l.257.429-.257-.429zM2.294 2.185l.253.431.004-.002-.257-.429zm-1.09 1.413l-.48-.135-.001.003.482.132zm5.497 11.703l-.354.353.354-.354zM16.835 21l.002-.5h-.002v.5zm1.567-.206l.13.483.005-.001-.135-.482zm1.413-1.089l-.428-.257-.003.004.431.253zm1.018-1.691l-.428-.258.428.258zm-.574-.342l-.428-.258h-.001l.429.258zm-1.016 1.693l-.429-.258-.003.005.432.253zm-1.016.788l.132.482.004-.002-.136-.48zM1.847 3.774l-.48-.136-.001.004.482.133zm.79-1.017l.252.431.005-.003-.257-.428zM4.33 1.74l.257.429-.257-.429zm.687.155l-.416.277.416-.277zm1.467 2.202l-.416.277.416-.277zm1.23 1.846l.418-.276-.001-.002-.416.278zm-.11.686l.306.395.002-.001-.309-.394zM6.087 7.81l.303.397.004-.003-.307-.395zm-.31 1.497l.439-.242-.002-.003-.436.245zm.121.218l.44-.24h-.002l-.438.24zm2.89 3.687l-.354.353.353-.353zm3.685 2.888l.242-.438h-.002l-.24.438zm.22.121l.244-.436-.003-.002-.242.438zm1.496-.309l-.394-.307-.003.003.398.304zm1.18-1.515l-.394-.31-.001.003.394.307zm.686-.112l.277-.416-.001-.001-.276.417zm4.048 2.7l-.277.416.277-.416zm.65-.972l-4.048-2.7-.555.833 4.048 2.7.555-.833zm-4.05-2.7a1.682 1.682 0 00-2.252.365l.788.617a.682.682 0 01.912-.148l.552-.834zm-2.253.367l-1.179 1.516.79.614 1.179-1.516-.79-.614zm-1.183 1.52a.004.004 0 01-.005.002l-.485.874c.436.242.985.127 1.287-.271l-.797-.604zm-.006 0l-.224-.123-.483.876.224.124.483-.876zm-.226-.124c-.707-.385-1.593-.862-3.42-2.69l-.706.708c1.901 1.902 2.866 2.435 3.647 2.86l.479-.878zm-3.42-2.69C7.79 10.56 7.313 9.674 6.927 8.969l-.877.479c.426.779.959 1.745 2.86 3.647l.708-.707zm-2.69-3.42l-.123-.223-.876.48.123.225.876-.481zM6.8 8.738a.005.005 0 010-.006l-.606-.795a1.005 1.005 0 00-.266 1.291l.872-.49zm.004-.009L8.321 7.55l-.615-.79-1.515 1.18.614.789zm1.517-1.18c.69-.54.85-1.52.366-2.251l-.834.55a.682.682 0 01-.149.914l.617.787zm.365-2.253l-2.7-4.049-.832.555 2.7 4.049.832-.555zm-2.7-4.048A1.675 1.675 0 003.73.74l.515.857a.675.675 0 01.91.205l.833-.554zM3.73.74L2.036 1.756l.515.858 1.693-1.017L3.729.74zM2.04 1.754a2.888 2.888 0 00-1.317 1.71l.963.27c.132-.47.44-.87.861-1.118l-.507-.862zM.723 3.466C.046 5.933.637 9.943 6.347 15.654l.707-.707C1.471 9.363 1.144 5.707 1.687 3.73l-.964-.265zm5.624 12.188c4.54 4.54 8.005 5.846 10.488 5.846v-1c-2.113 0-5.337-1.11-9.78-5.553l-.708.707zM16.833 21.5a6.406 6.406 0 001.7-.222l-.262-.965c-.467.126-.95.19-1.434.187l-.004 1zm1.704-.223a2.886 2.886 0 001.71-1.317l-.863-.507c-.247.42-.647.73-1.117.861l.27.963zm1.707-1.313l1.018-1.692-.857-.515-1.018 1.692.857.515zm1.017-1.691a1.675 1.675 0 00-.508-2.26l-.553.833c.3.2.391.601.205.91l.856.517zm-1.431-.858l-1.016 1.693.858.515 1.015-1.693-.857-.515zm-1.019 1.698a1.222 1.222 0 01-.721.56l.273.962a2.223 2.223 0 001.312-1.017l-.864-.505zm-.717.558c-1.798.494-5.203.17-10.568-5.196l-.707.707c5.477 5.478 9.237 6.086 11.54 5.454l-.265-.965zM7.526 14.475C2.16 9.11 1.836 5.705 2.33 3.907l-.964-.265c-.633 2.303-.025 6.063 5.453 11.54l.707-.707zM2.329 3.911c.086-.304.287-.563.56-.723l-.505-.863c-.496.29-.86.76-1.017 1.313l.962.273zm.565-.726L4.587 2.17l-.515-.858L2.38 2.328l.515.857zM4.587 2.17a.01.01 0 01.014.003l.833-.554a1.01 1.01 0 00-1.362-.306l.515.857zm.014.003l1.467 2.202.832-.555-1.467-2.2-.832.554zm1.467 2.202l1.23 1.846.833-.555L6.9 3.82l-.832.555zm1.23 1.845a.013.013 0 01-.003.017l.617.787c.415-.326.51-.916.22-1.356l-.834.552zm-.002.016L5.781 7.415l.614.789L7.91 7.025l-.614-.79zM5.784 7.412a1.667 1.667 0 00-.441 2.14l.872-.49a.667.667 0 01.176-.855l-.607-.795zm-.443 2.136l.12.218.876-.482-.12-.219-.876.483zm.12.217c.445.817 1.002 1.829 2.974 3.8l.707-.707c-1.896-1.895-2.398-2.827-2.804-3.572l-.878.479zm2.974 3.8c1.971 1.971 2.983 2.529 3.8 2.974l.479-.878c-.745-.406-1.677-.908-3.572-2.803l-.707.707zm3.798 2.973l.219.121.483-.876-.22-.12-.482.875zm.216.12a1.667 1.667 0 002.139-.442l-.795-.608a.667.667 0 01-.855.177l-.49.872zm2.136-.439l1.18-1.515-.79-.614-1.18 1.515.79.614zm1.178-1.514a.013.013 0 01.018-.002l.55-.835a1.013 1.013 0 00-1.355.22l.787.617zm.016-.004l4.048 2.7.554-.832-4.047-2.7-.555.832zm4.049 2.7a.009.009 0 01.002.003l.002.003a.01.01 0 010 .004l-.002.004.857.516a1.01 1.01 0 00-.306-1.363l-.553.834z" fill="#fff" mask="url(#a)"/></svg>