<svg width="19" height="25" fill="none" xmlns="http://www.w3.org/2000/svg"><path d="M9.5 25a1.493 1.493 0 01-1.307-.757l-.009-.015-6.2-11.347a8.703 8.703 0 01.114-8.6C3.616 1.663 6.31.063 9.308.002c.127-.003.256-.003.384 0 2.997.061 5.692 1.66 7.209 4.28a8.703 8.703 0 01.114 8.599l-6.2 11.347-.008.015A1.493 1.493 0 019.5 25zm0-23.437l-.161.001c-2.446.05-4.648 1.359-5.889 3.5a7.153 7.153 0 00-.094 7.068L9.5 23.377l6.143-11.245a7.153 7.153 0 00-.094-7.067c-1.241-2.142-3.443-3.451-5.889-3.5a7.924 7.924 0 00-.16-.002z" fill="#8D8D8D"/><path d="M9.5 11.328a3.52 3.52 0 01-3.516-3.515A3.52 3.52 0 019.5 4.296a3.52 3.52 0 013.516 3.516A3.52 3.52 0 019.5 11.328zm0-5.469a1.955 1.955 0 00-1.953 1.954c0 1.076.876 1.953 1.953 1.953a1.955 1.955 0 001.953-1.954A1.955 1.955 0 009.5 5.86z" fill="#8D8D8D"/></svg>