<svg width="24" height="27" fill="none" xmlns="http://www.w3.org/2000/svg"><path fill-rule="evenodd" clip-rule="evenodd" d="M21 7H3a1 1 0 00-1 1v9a1 1 0 001 1h18a1 1 0 001-1V8a1 1 0 00-1-1zM3 5a3 3 0 00-3 3v9a3 3 0 003 3h18a3 3 0 003-3V8a3 3 0 00-3-3H3z" fill="#A5A7A9"/><path fill="#1F2227" d="M4 13h16v7H4z"/><path fill-rule="evenodd" clip-rule="evenodd" d="M17 2H7a1 1 0 00-1 1v2a1 1 0 001 1h10a1 1 0 001-1V3a1 1 0 00-1-1zM7 0a3 3 0 00-3 3v2a3 3 0 003 3h10a3 3 0 003-3V3a3 3 0 00-3-3H7z" fill="#A5A7A9"/><path fill="#1F2227" d="M3 7h18v7H3z"/><path fill-rule="evenodd" clip-rule="evenodd" d="M17 15H7a1 1 0 00-1 1v8a1 1 0 001 1h10a1 1 0 001-1v-8a1 1 0 00-1-1zM7 13a3 3 0 00-3 3v8a3 3 0 003 3h10a3 3 0 003-3v-8a3 3 0 00-3-3H7z" fill="#A5A7A9"/><rect x="16" y="17" width="2" height="8" rx="1" transform="rotate(90 16 17)" fill="#A5A7A9"/><rect x="16" y="21" width="2" height="8" rx="1" transform="rotate(90 16 21)" fill="#A5A7A9"/><rect x="20" y="9" width="2" height="3" rx="1" transform="rotate(90 20 9)" fill="#A5A7A9"/></svg>