<svg width="24" height="25" fill="none" xmlns="http://www.w3.org/2000/svg"><path d="M1 3.5a2 2 0 012-2h13a7 7 0 017 7v13a2 2 0 01-2 2H3a2 2 0 01-2-2v-18z" stroke="#A5A7A9" stroke-width="2"/><rect x="4" y="13.5" width="2" height="10" rx="1" fill="#A5A7A9"/><rect x="18" y="13.5" width="2" height="10" rx="1" fill="#A5A7A9"/><rect x="4" y="15.5" width="2" height="16" rx="1" transform="rotate(-90 4 15.5)" fill="#A5A7A9"/><rect x="6" y="9.5" width="2" height="12" rx="1" transform="rotate(-90 6 9.5)" fill="#A5A7A9"/><rect x="8" y="9.5" width="2" height="8" rx="1" transform="rotate(180 8 9.5)" fill="#A5A7A9"/><rect x="18" y="9.5" width="2" height="8" rx="1" transform="rotate(180 18 9.5)" fill="#A5A7A9"/><rect x="15" y="6.5" width="2" height="3" rx="1" transform="rotate(-180 15 6.5)" fill="#A5A7A9"/></svg>