<svg width="137" height="127" fill="none" xmlns="http://www.w3.org/2000/svg"><g filter="url(#filter0_d)" fill="#9E6CFD"><path d="M63.245 116.488C33.888 116.488 10 92.601 10 63.245 10 33.888 33.888 10 63.245 10a53.068 53.068 0 0128.722 8.417 3.632 3.632 0 11-3.925 6.114 45.782 45.782 0 00-24.797-7.27c-25.355 0-45.984 20.63-45.984 45.984 0 25.353 20.63 45.982 45.984 45.982 25.353 0 45.982-20.63 45.982-45.983 0-1.515-.072-3.016-.212-4.491a3.63 3.63 0 013.262-3.965 3.634 3.634 0 013.965 3.263 54.36 54.36 0 01.246 5.194c0 29.356-23.887 53.243-53.243 53.243z"/><path d="M69.297 75.345a3.603 3.603 0 01-2.565-1.064L44.95 52.499a3.632 3.632 0 015.136-5.136L69.302 66.58l50.674-50.674a3.632 3.632 0 015.136 5.135L71.867 74.285a3.637 3.637 0 01-2.57 1.06z"/></g><defs><filter id="filter0_d" x="0" y="0" width="136.175" height="126.488" filterUnits="userSpaceOnUse" color-interpolation-filters="sRGB"><feFlood flood-opacity="0" result="BackgroundImageFix"/><feColorMatrix in="SourceAlpha" values="0 0 0 0 0 0 0 0 0 0 0 0 0 0 0 0 0 0 127 0"/><feOffset/><feGaussianBlur stdDeviation="5"/><feColorMatrix values="0 0 0 0 0 0 0 0 0 0 0 0 0 0 0 0 0 0 0.2 0"/><feBlend in2="BackgroundImageFix" result="effect1_dropShadow"/><feBlend in="SourceGraphic" in2="effect1_dropShadow" result="shape"/></filter></defs></svg>