<svg width="30" height="29" fill="none" xmlns="http://www.w3.org/2000/svg"><path fill-rule="evenodd" clip-rule="evenodd" d="M3 2h15.75a1 1 0 011 1v8.455a8.893 8.893 0 012-.012V3a3 3 0 00-3-3H3a3 3 0 00-3 3v18.857a3 3 0 003 3h10.334a8.76 8.76 0 01-.925-2H3a1 1 0 01-1-1V3a1 1 0 011-1z" fill="#A5A7A9"/><circle cx="20.804" cy="20.196" r="7.804" stroke="#A5A7A9" stroke-width="2"/><rect x="17.607" y="5.178" width="1.7" height="13.464" rx=".85" transform="rotate(90 17.607 5.178)" fill="#A5A7A9"/><rect x="11.393" y="13" width="1.7" height="7.25" rx=".85" transform="rotate(90 11.393 13)" fill="#A5A7A9"/><rect x="14.5" y="9" width="1.7" height="10.357" rx=".85" transform="rotate(90 14.5 9)" fill="#A5A7A9"/><rect x="19.79" y="15.5" width="2" height="8" rx="1" fill="#A5A7A9"/><rect x="23.6" y="19.57" width="2" height="6" rx="1" transform="rotate(45 23.6 19.57)" fill="#A5A7A9"/><rect x="16.5" y="20.984" width="2" height="6" rx="1" transform="rotate(-45 16.5 20.984)" fill="#A5A7A9"/></svg>